<svg xmlns="http://www.w3.org/2000/svg" xmlns:xlink="http://www.w3.org/1999/xlink" width="539" zoomAndPan="magnify" viewBox="0 0 404.25 299.999988" height="400" preserveAspectRatio="xMidYMid meet" version="1.0"><defs><clipPath id="2972f60d19"><path d="M 171 250 L 249 250 L 249 299.722656 L 171 299.722656 Z M 171 250 " clip-rule="nonzero"/></clipPath><clipPath id="97548e4451"><path d="M 59.785156 42 L 359.976562 42 L 359.976562 258 L 59.785156 258 Z M 59.785156 42 " clip-rule="nonzero"/></clipPath><clipPath id="340d738649"><path d="M 158 293 L 262 293 L 262 299.722656 L 158 299.722656 Z M 158 293 " clip-rule="nonzero"/></clipPath><clipPath id="63d7a84c4c"><path d="M 136 0.277344 L 284 0.277344 L 284 187 L 136 187 Z M 136 0.277344 " clip-rule="nonzero"/></clipPath><clipPath id="b7de4ba115"><path d="M 136 0.277344 L 284 0.277344 L 284 38 L 136 38 Z M 136 0.277344 " clip-rule="nonzero"/></clipPath><clipPath id="56b525d7e2"><path d="M 0 0.277344 L 35 0.277344 L 35 81 L 0 81 Z M 0 0.277344 " clip-rule="nonzero"/></clipPath><clipPath id="4d65224778"><path d="M 15 57 L 59.929688 57 L 59.929688 101.601562 L 15 101.601562 Z M 15 57 " clip-rule="nonzero"/></clipPath></defs><g clip-path="url(#2972f60d19)"><path fill="#505050" d="M 186.332031 255.128906 C 185.847656 253.390625 186.820312 251.585938 188.554688 251.101562 C 191.054688 250.40625 228.703125 250.40625 231.203125 251.101562 C 232.941406 251.585938 233.914062 253.390625 233.425781 255.128906 C 233.425781 255.199219 229.328125 268.394531 247.457031 294.582031 C 248.5 296.039062 248.082031 298.125 246.625 299.097656 L 173.136719 299.097656 C 171.675781 298.054688 171.261719 296.039062 172.300781 294.582031 C 190.429688 268.394531 186.332031 255.199219 186.332031 255.128906 Z M 186.332031 255.128906 " fill-opacity="1" fill-rule="evenodd"/></g><g clip-path="url(#97548e4451)"><path fill="#cccccc" d="M 77.140625 42.578125 L 342.617188 42.578125 C 347.410156 42.578125 351.71875 44.523438 354.84375 47.648438 C 357.96875 50.777344 359.914062 55.082031 359.914062 59.875 L 359.914062 240.195312 C 359.914062 244.988281 357.96875 249.292969 354.84375 252.417969 C 351.71875 255.546875 347.410156 257.488281 342.617188 257.488281 L 77.140625 257.488281 C 72.417969 257.488281 68.042969 255.546875 64.914062 252.417969 C 61.789062 249.292969 59.84375 244.988281 59.84375 240.195312 L 59.84375 59.875 C 59.84375 55.152344 61.789062 50.777344 64.914062 47.648438 C 68.109375 44.523438 72.417969 42.578125 77.140625 42.578125 Z M 77.140625 42.578125 " fill-opacity="1" fill-rule="evenodd"/></g><path fill="#ffffff" d="M 84.433594 63.902344 L 335.394531 63.902344 C 337.199219 63.902344 338.660156 65.363281 338.660156 67.167969 L 338.660156 204.351562 C 338.660156 206.160156 337.199219 207.617188 335.394531 207.617188 L 84.433594 207.617188 C 82.628906 207.617188 81.167969 206.160156 81.167969 204.351562 L 81.167969 67.167969 C 81.167969 65.363281 82.628906 63.902344 84.433594 63.902344 Z M 84.433594 63.902344 " fill-opacity="1" fill-rule="nonzero"/><g clip-path="url(#340d738649)"><path fill="#cccccc" d="M 161.742188 299.722656 C 159.9375 299.722656 158.480469 298.261719 158.480469 296.457031 C 158.480469 294.652344 159.9375 293.191406 161.742188 293.191406 L 258.085938 293.191406 C 259.890625 293.191406 261.351562 294.652344 261.351562 296.457031 C 261.351562 298.261719 259.890625 299.722656 258.085938 299.722656 Z M 161.742188 299.722656 " fill-opacity="1" fill-rule="evenodd"/></g><path fill="#929292" d="M 209.949219 220.050781 C 213.421875 220.050781 216.546875 221.441406 218.769531 223.730469 C 221.0625 226.023438 222.453125 229.148438 222.453125 232.554688 C 222.453125 236.027344 221.0625 239.152344 218.769531 241.375 C 216.480469 243.667969 213.351562 245.058594 209.949219 245.058594 C 206.476562 245.058594 203.351562 243.667969 201.128906 241.375 C 198.835938 239.082031 197.445312 235.957031 197.445312 232.554688 C 197.445312 229.148438 198.835938 225.957031 201.128906 223.730469 C 203.351562 221.441406 206.476562 220.050781 209.949219 220.050781 Z M 209.949219 220.050781 " fill-opacity="1" fill-rule="evenodd"/><path fill="#ffffff" d="M 168.757812 229.289062 C 170.566406 229.289062 172.023438 230.746094 172.023438 232.554688 C 172.023438 234.359375 170.566406 235.820312 168.757812 235.820312 L 100.410156 235.820312 C 98.605469 235.820312 97.144531 234.359375 97.144531 232.554688 C 97.144531 230.746094 98.605469 229.289062 100.410156 229.289062 Z M 168.757812 229.289062 " fill-opacity="1" fill-rule="nonzero"/><path fill="#ffffff" d="M 319.488281 229.289062 C 321.292969 229.289062 322.753906 230.746094 322.753906 232.554688 C 322.753906 234.359375 321.292969 235.820312 319.488281 235.820312 L 251.140625 235.820312 C 249.332031 235.820312 247.875 234.359375 247.875 232.554688 C 247.875 230.746094 249.332031 229.289062 251.140625 229.289062 Z M 319.488281 229.289062 " fill-opacity="1" fill-rule="nonzero"/><g clip-path="url(#63d7a84c4c)"><path fill="#434343" d="M 147.644531 0.277344 L 272.253906 0.277344 C 275.242188 0.277344 278.019531 1.527344 279.964844 3.472656 C 281.980469 5.417969 283.160156 8.195312 283.160156 11.183594 L 283.160156 175.179688 C 283.160156 178.167969 281.910156 180.945312 279.964844 182.890625 C 277.953125 184.902344 275.242188 186.085938 272.253906 186.085938 L 147.644531 186.085938 C 144.65625 186.085938 141.878906 184.835938 139.933594 182.890625 C 137.988281 180.945312 136.738281 178.167969 136.738281 175.179688 L 136.738281 11.253906 C 136.738281 8.265625 137.988281 5.488281 139.933594 3.542969 C 141.878906 1.527344 144.585938 0.277344 147.644531 0.277344 Z M 147.644531 0.277344 " fill-opacity="1" fill-rule="evenodd"/></g><path fill="#ffffff" d="M 272.253906 4.375 L 147.644531 4.375 C 145.769531 4.375 144.03125 5.140625 142.78125 6.390625 C 141.53125 7.640625 140.765625 9.378906 140.765625 11.253906 L 140.765625 175.25 C 140.765625 177.125 141.53125 178.859375 142.78125 180.109375 C 144.03125 181.363281 145.769531 182.125 147.644531 182.125 L 272.253906 182.125 C 274.132812 182.125 275.867188 181.363281 277.117188 180.109375 C 278.367188 178.859375 279.132812 177.125 279.132812 175.25 L 279.132812 11.253906 C 279.132812 9.378906 278.367188 7.640625 277.117188 6.390625 C 275.796875 5.140625 274.132812 4.375 272.253906 4.375 Z M 272.253906 4.375 " fill-opacity="1" fill-rule="nonzero"/><g clip-path="url(#b7de4ba115)"><path fill="#434343" d="M 147.644531 0.277344 L 272.253906 0.277344 C 275.242188 0.277344 278.019531 1.527344 279.964844 3.472656 C 281.980469 5.417969 283.160156 8.195312 283.160156 11.183594 L 283.160156 37.925781 L 136.667969 37.925781 L 136.667969 11.253906 C 136.667969 8.265625 137.917969 5.488281 139.863281 3.542969 C 141.878906 1.527344 144.585938 0.277344 147.644531 0.277344 Z M 147.644531 0.277344 " fill-opacity="1" fill-rule="nonzero"/></g><path fill="#818181" d="M 181.125 10.628906 C 183.484375 10.628906 185.570312 11.601562 187.097656 13.128906 C 188.625 14.65625 189.597656 16.808594 189.597656 19.171875 C 189.597656 21.53125 188.625 23.617188 187.097656 25.214844 C 185.570312 26.8125 183.414062 27.714844 181.125 27.714844 C 178.761719 27.714844 176.679688 26.742188 175.148438 25.214844 C 173.621094 23.6875 172.648438 21.53125 172.648438 19.171875 C 172.648438 16.808594 173.621094 14.726562 175.148438 13.128906 C 176.679688 11.53125 178.761719 10.628906 181.125 10.628906 Z M 181.125 10.628906 " fill-opacity="1" fill-rule="evenodd"/><path fill="#bcbcbc" d="M 202.378906 10.628906 C 204.738281 10.628906 206.824219 11.601562 208.351562 13.128906 C 209.878906 14.65625 210.851562 16.808594 210.851562 19.171875 C 210.851562 21.53125 209.878906 23.617188 208.351562 25.214844 C 206.824219 26.8125 204.671875 27.714844 202.378906 27.714844 C 200.015625 27.714844 197.933594 26.742188 196.40625 25.214844 C 194.875 23.6875 193.902344 21.53125 193.902344 19.171875 C 193.902344 16.808594 194.875 14.726562 196.40625 13.128906 C 197.933594 11.601562 200.085938 10.628906 202.378906 10.628906 Z M 202.378906 10.628906 " fill-opacity="1" fill-rule="evenodd"/><path fill="#e8e8e8" d="M 159.800781 10.628906 C 162.160156 10.628906 164.246094 11.601562 165.773438 13.128906 C 167.300781 14.65625 168.273438 16.808594 168.273438 19.171875 C 168.273438 21.53125 167.300781 23.617188 165.773438 25.214844 C 164.246094 26.8125 162.089844 27.714844 159.800781 27.714844 C 157.4375 27.714844 155.351562 26.742188 153.824219 25.214844 C 152.296875 23.6875 151.324219 21.53125 151.324219 19.171875 C 151.324219 16.808594 152.296875 14.726562 153.824219 13.128906 C 155.285156 11.601562 157.4375 10.628906 159.800781 10.628906 Z M 159.800781 10.628906 " fill-opacity="1" fill-rule="evenodd"/><path fill="#818181" d="M 168.132812 141.492188 C 166.675781 142.601562 164.589844 142.253906 163.480469 140.726562 C 162.367188 139.199219 162.714844 137.183594 164.246094 136.074219 C 177.996094 126.070312 193.972656 121.070312 209.949219 121.070312 C 225.925781 121.070312 241.902344 126.070312 255.65625 136.074219 C 257.113281 137.183594 257.460938 139.269531 256.417969 140.726562 C 255.375 142.1875 253.292969 142.53125 251.765625 141.492188 C 239.191406 132.324219 224.535156 127.738281 209.949219 127.738281 C 195.363281 127.738281 180.707031 132.324219 168.132812 141.492188 Z M 168.132812 141.492188 " fill-opacity="1" fill-rule="evenodd"/><path fill="#818181" d="M 170.21875 85.507812 C 168.898438 84.1875 168.898438 82.101562 170.21875 80.78125 C 171.539062 79.460938 173.621094 79.460938 174.941406 80.78125 L 195.917969 101.757812 C 197.238281 103.078125 197.238281 105.164062 195.917969 106.484375 C 194.597656 107.800781 192.515625 107.800781 191.195312 106.484375 Z M 170.21875 85.507812 " fill-opacity="1" fill-rule="evenodd"/><path fill="#818181" d="M 191.195312 80.78125 C 192.515625 79.460938 194.597656 79.460938 195.917969 80.78125 C 197.238281 82.101562 197.238281 84.1875 195.917969 85.507812 L 174.941406 106.484375 C 173.621094 107.800781 171.539062 107.800781 170.21875 106.484375 C 168.898438 105.164062 168.898438 103.078125 170.21875 101.757812 Z M 191.195312 80.78125 " fill-opacity="1" fill-rule="evenodd"/><path fill="#818181" d="M 223.910156 85.507812 C 222.589844 84.1875 222.589844 82.101562 223.910156 80.78125 C 225.230469 79.460938 227.316406 79.460938 228.632812 80.78125 L 249.609375 101.757812 C 250.929688 103.078125 250.929688 105.164062 249.609375 106.484375 C 248.292969 107.800781 246.207031 107.800781 244.886719 106.484375 Z M 223.910156 85.507812 " fill-opacity="1" fill-rule="evenodd"/><path fill="#818181" d="M 244.886719 80.78125 C 246.207031 79.460938 248.292969 79.460938 249.609375 80.78125 C 250.929688 82.101562 250.929688 84.1875 249.609375 85.507812 L 228.632812 106.484375 C 227.316406 107.800781 225.230469 107.800781 223.910156 106.484375 C 222.589844 105.164062 222.589844 103.078125 223.910156 101.757812 Z M 244.886719 80.78125 " fill-opacity="1" fill-rule="evenodd"/><g clip-path="url(#56b525d7e2)"><path fill="#ffffff" d="M -12.96875 80.125 C -14.519531 80.125 -16.070312 80.050781 -17.613281 79.898438 C -19.15625 79.746094 -20.6875 79.519531 -22.207031 79.21875 C -23.730469 78.914062 -25.234375 78.539062 -26.71875 78.085938 C -28.199219 77.636719 -29.660156 77.117188 -31.09375 76.523438 C -32.523438 75.929688 -33.925781 75.265625 -35.292969 74.535156 C -36.660156 73.804688 -37.988281 73.007812 -39.28125 72.144531 C -40.570312 71.285156 -41.8125 70.359375 -43.011719 69.378906 C -44.210938 68.394531 -45.359375 67.351562 -46.457031 66.257812 C -47.550781 65.160156 -48.59375 64.011719 -49.578125 62.8125 C -50.558594 61.613281 -51.484375 60.371094 -52.34375 59.078125 C -53.207031 57.789062 -54.003906 56.460938 -54.734375 55.09375 C -55.464844 53.726562 -56.128906 52.324219 -56.722656 50.894531 C -57.3125 49.460938 -57.835938 48 -58.285156 46.515625 C -58.738281 45.03125 -59.113281 43.53125 -59.414062 42.007812 C -59.71875 40.488281 -59.945312 38.957031 -60.097656 37.410156 C -60.25 35.867188 -60.324219 34.320312 -60.324219 32.769531 C -60.324219 31.21875 -60.25 29.671875 -60.097656 28.128906 C -59.945312 26.585938 -59.71875 25.054688 -59.414062 23.53125 C -59.113281 22.011719 -58.734375 20.507812 -58.285156 19.023438 C -57.835938 17.539062 -57.3125 16.082031 -56.71875 14.648438 C -56.125 13.214844 -55.464844 11.816406 -54.734375 10.445312 C -54 9.078125 -53.203125 7.75 -52.34375 6.460938 C -51.480469 5.171875 -50.558594 3.925781 -49.574219 2.726562 C -48.589844 1.53125 -47.550781 0.382812 -46.453125 -0.714844 C -45.355469 -1.8125 -44.210938 -2.851562 -43.011719 -3.835938 C -41.8125 -4.820312 -40.566406 -5.742188 -39.277344 -6.605469 C -37.988281 -7.464844 -36.660156 -8.261719 -35.292969 -8.992188 C -33.921875 -9.722656 -32.523438 -10.386719 -31.089844 -10.980469 C -29.65625 -11.574219 -28.199219 -12.09375 -26.714844 -12.542969 C -25.230469 -12.996094 -23.726562 -13.371094 -22.207031 -13.671875 C -20.683594 -13.976562 -19.152344 -14.203125 -17.609375 -14.355469 C -16.066406 -14.507812 -14.519531 -14.582031 -12.96875 -14.582031 C -11.417969 -14.582031 -9.867188 -14.507812 -8.324219 -14.355469 C -6.78125 -14.203125 -5.25 -13.976562 -3.730469 -13.671875 C -2.207031 -13.371094 -0.703125 -12.992188 0.777344 -12.542969 C 2.261719 -12.09375 3.722656 -11.570312 5.15625 -10.976562 C 6.585938 -10.382812 7.988281 -9.722656 9.355469 -8.988281 C 10.722656 -8.257812 12.050781 -7.460938 13.339844 -6.601562 C 14.632812 -5.738281 15.875 -4.816406 17.074219 -3.832031 C 18.273438 -2.847656 19.421875 -1.808594 20.515625 -0.710938 C 21.613281 0.386719 22.652344 1.535156 23.636719 2.734375 C 24.621094 3.933594 25.542969 5.175781 26.40625 6.464844 C 27.269531 7.753906 28.0625 9.085938 28.796875 10.453125 C 29.527344 11.820312 30.1875 13.21875 30.78125 14.652344 C 31.375 16.085938 31.898438 17.546875 32.347656 19.027344 C 32.796875 20.511719 33.171875 22.015625 33.476562 23.539062 C 33.777344 25.058594 34.003906 26.589844 34.15625 28.132812 C 34.308594 29.679688 34.386719 31.226562 34.386719 32.777344 C 34.382812 34.328125 34.304688 35.871094 34.152344 37.414062 C 34 38.957031 33.769531 40.488281 33.464844 42.011719 C 33.160156 43.53125 32.785156 45.03125 32.332031 46.515625 C 31.882812 48 31.359375 49.457031 30.765625 50.890625 C 30.171875 52.320312 29.507812 53.71875 28.777344 55.085938 C 28.046875 56.453125 27.25 57.78125 26.386719 59.070312 C 25.523438 60.359375 24.601562 61.601562 23.617188 62.800781 C 22.632812 64 21.59375 65.148438 20.5 66.242188 C 19.402344 67.339844 18.253906 68.378906 17.054688 69.363281 C 15.859375 70.347656 14.613281 71.269531 13.324219 72.132812 C 12.035156 72.992188 10.707031 73.789062 9.339844 74.519531 C 7.972656 75.253906 6.574219 75.914062 5.144531 76.507812 C 3.710938 77.101562 2.253906 77.625 0.769531 78.078125 C -0.714844 78.527344 -2.214844 78.90625 -3.734375 79.207031 C -5.257812 79.511719 -6.789062 79.742188 -8.332031 79.894531 C -9.875 80.046875 -11.417969 80.125 -12.96875 80.125 Z M -12.96875 -6.023438 C -14.242188 -6.023438 -15.507812 -5.960938 -16.773438 -5.835938 C -18.039062 -5.710938 -19.292969 -5.527344 -20.539062 -5.277344 C -21.785156 -5.03125 -23.015625 -4.722656 -24.234375 -4.351562 C -25.449219 -3.984375 -26.644531 -3.554688 -27.816406 -3.070312 C -28.992188 -2.582031 -30.140625 -2.039062 -31.261719 -1.441406 C -32.378906 -0.84375 -33.46875 -0.191406 -34.527344 0.515625 C -35.582031 1.222656 -36.601562 1.976562 -37.585938 2.785156 C -38.566406 3.589844 -39.507812 4.441406 -40.40625 5.339844 C -41.304688 6.238281 -42.15625 7.179688 -42.960938 8.160156 C -43.769531 9.144531 -44.523438 10.164062 -45.230469 11.21875 C -45.9375 12.277344 -46.589844 13.367188 -47.1875 14.484375 C -47.789062 15.605469 -48.328125 16.753906 -48.816406 17.929688 C -49.300781 19.101562 -49.730469 20.296875 -50.097656 21.511719 C -50.46875 22.730469 -50.777344 23.960938 -51.023438 25.207031 C -51.273438 26.453125 -51.457031 27.707031 -51.582031 28.972656 C -51.707031 30.238281 -51.769531 31.503906 -51.769531 32.777344 C -51.769531 34.046875 -51.707031 35.316406 -51.582031 36.578125 C -51.457031 37.84375 -51.273438 39.097656 -51.023438 40.34375 C -50.777344 41.589844 -50.46875 42.824219 -50.097656 44.039062 C -49.730469 45.253906 -49.300781 46.449219 -48.816406 47.625 C -48.328125 48.796875 -47.789062 49.945312 -47.1875 51.066406 C -46.589844 52.1875 -45.9375 53.273438 -45.230469 54.332031 C -44.523438 55.386719 -43.769531 56.40625 -42.960938 57.390625 C -42.15625 58.371094 -41.304688 59.3125 -40.40625 60.210938 C -39.507812 61.109375 -38.566406 61.960938 -37.585938 62.769531 C -36.601562 63.574219 -35.582031 64.332031 -34.527344 65.035156 C -33.46875 65.742188 -32.378906 66.394531 -31.261719 66.992188 C -30.140625 67.59375 -28.992188 68.136719 -27.816406 68.621094 C -26.644531 69.109375 -25.449219 69.535156 -24.234375 69.90625 C -23.015625 70.273438 -21.785156 70.582031 -20.539062 70.828125 C -19.292969 71.078125 -18.039062 71.265625 -16.773438 71.390625 C -15.507812 71.511719 -14.242188 71.574219 -12.96875 71.574219 C -11.699219 71.574219 -10.433594 71.511719 -9.167969 71.390625 C -7.902344 71.265625 -6.648438 71.078125 -5.402344 70.828125 C -4.15625 70.582031 -2.921875 70.273438 -1.707031 69.90625 C -0.492188 69.535156 0.703125 69.109375 1.878906 68.621094 C 3.050781 68.136719 4.199219 67.59375 5.320312 66.992188 C 6.441406 66.394531 7.527344 65.742188 8.585938 65.035156 C 9.640625 64.332031 10.660156 63.574219 11.644531 62.769531 C 12.625 61.960938 13.566406 61.109375 14.464844 60.210938 C 15.363281 59.3125 16.214844 58.371094 17.023438 57.390625 C 17.828125 56.40625 18.585938 55.386719 19.289062 54.332031 C 19.996094 53.273438 20.648438 52.1875 21.246094 51.066406 C 21.847656 49.945312 22.390625 48.796875 22.875 47.625 C 23.363281 46.449219 23.789062 45.253906 24.160156 44.039062 C 24.527344 42.824219 24.835938 41.589844 25.082031 40.34375 C 25.332031 39.097656 25.519531 37.84375 25.640625 36.578125 C 25.765625 35.316406 25.828125 34.046875 25.828125 32.777344 C 25.828125 31.503906 25.765625 30.238281 25.636719 28.972656 C 25.511719 27.710938 25.324219 26.457031 25.074219 25.210938 C 24.828125 23.964844 24.519531 22.734375 24.148438 21.519531 C 23.777344 20.304688 23.351562 19.109375 22.863281 17.933594 C 22.375 16.761719 21.832031 15.617188 21.234375 14.496094 C 20.632812 13.375 19.980469 12.289062 19.277344 11.230469 C 18.570312 10.175781 17.8125 9.15625 17.007812 8.175781 C 16.203125 7.191406 15.351562 6.253906 14.453125 5.355469 C 13.554688 4.457031 12.613281 3.605469 11.632812 2.796875 C 10.648438 1.992188 9.628906 1.234375 8.574219 0.53125 C 7.519531 -0.175781 6.429688 -0.828125 5.308594 -1.429688 C 4.191406 -2.027344 3.042969 -2.570312 1.871094 -3.058594 C 0.695312 -3.542969 -0.496094 -3.972656 -1.710938 -4.34375 C -2.929688 -4.710938 -4.160156 -5.019531 -5.402344 -5.269531 C -6.648438 -5.519531 -7.90625 -5.707031 -9.167969 -5.832031 C -10.433594 -5.957031 -11.699219 -6.023438 -12.96875 -6.023438 Z M -12.96875 -6.023438 " fill-opacity="1" fill-rule="nonzero"/></g><g clip-path="url(#4d65224778)"><path fill="#ffffff" d="M 55.175781 101.554688 C 53.992188 101.558594 52.984375 101.140625 52.152344 100.300781 L 16.21875 64.367188 C 16.023438 64.167969 15.851562 63.949219 15.703125 63.71875 C 15.550781 63.484375 15.425781 63.238281 15.320312 62.980469 C 15.21875 62.722656 15.140625 62.457031 15.089844 62.183594 C 15.039062 61.910156 15.015625 61.636719 15.015625 61.359375 C 15.019531 61.082031 15.046875 60.804688 15.105469 60.535156 C 15.160156 60.261719 15.242188 59.996094 15.347656 59.742188 C 15.457031 59.484375 15.585938 59.242188 15.742188 59.011719 C 15.898438 58.78125 16.074219 58.566406 16.269531 58.371094 C 16.464844 58.175781 16.679688 58 16.910156 57.84375 C 17.140625 57.6875 17.382812 57.558594 17.640625 57.449219 C 17.894531 57.34375 18.160156 57.261719 18.433594 57.207031 C 18.703125 57.148438 18.980469 57.121094 19.257812 57.117188 C 19.535156 57.117188 19.808594 57.140625 20.082031 57.191406 C 20.355469 57.242188 20.621094 57.320312 20.878906 57.421875 C 21.136719 57.527344 21.382812 57.652344 21.617188 57.804688 C 21.847656 57.953125 22.066406 58.125 22.265625 58.320312 L 58.199219 94.253906 C 58.5 94.550781 58.746094 94.886719 58.945312 95.261719 C 59.144531 95.632812 59.285156 96.027344 59.371094 96.441406 C 59.453125 96.855469 59.472656 97.273438 59.429688 97.695312 C 59.390625 98.117188 59.289062 98.523438 59.125 98.914062 C 58.964844 99.304688 58.75 99.664062 58.480469 99.988281 C 58.210938 100.316406 57.902344 100.597656 57.550781 100.832031 C 57.199219 101.066406 56.820312 101.246094 56.417969 101.371094 C 56.011719 101.492188 55.597656 101.554688 55.175781 101.554688 Z M 55.175781 101.554688 " fill-opacity="1" fill-rule="nonzero"/></g><path fill="#ffffff" d="M 2.660156 53.410156 C 1.621094 53.410156 0.703125 53.078125 -0.09375 52.40625 C -1.09375 51.601562 -2.152344 50.890625 -3.273438 50.265625 C -4.394531 49.644531 -5.558594 49.117188 -6.769531 48.691406 C -7.976562 48.265625 -9.214844 47.945312 -10.480469 47.730469 C -11.742188 47.511719 -13.015625 47.40625 -14.296875 47.40625 C -15.582031 47.40625 -16.855469 47.511719 -18.117188 47.730469 C -19.382812 47.945312 -20.617188 48.265625 -21.828125 48.691406 C -23.039062 49.117188 -24.203125 49.644531 -25.324219 50.265625 C -26.445312 50.890625 -27.503906 51.601562 -28.503906 52.40625 C -28.71875 52.582031 -28.949219 52.738281 -29.195312 52.871094 C -29.4375 53 -29.695312 53.109375 -29.960938 53.191406 C -30.226562 53.273438 -30.5 53.328125 -30.777344 53.355469 C -31.054688 53.386719 -31.332031 53.386719 -31.609375 53.363281 C -31.886719 53.335938 -32.160156 53.285156 -32.425781 53.207031 C -32.691406 53.125 -32.949219 53.023438 -33.195312 52.894531 C -33.445312 52.765625 -33.675781 52.613281 -33.894531 52.441406 C -34.109375 52.265625 -34.308594 52.070312 -34.488281 51.859375 C -34.667969 51.644531 -34.824219 51.417969 -34.960938 51.171875 C -35.097656 50.929688 -35.207031 50.675781 -35.292969 50.410156 C -35.375 50.144531 -35.433594 49.875 -35.46875 49.597656 C -35.5 49.320312 -35.503906 49.042969 -35.484375 48.765625 C -35.460938 48.488281 -35.414062 48.214844 -35.335938 47.945312 C -35.261719 47.679688 -35.160156 47.417969 -35.035156 47.171875 C -34.910156 46.921875 -34.761719 46.6875 -34.589844 46.46875 C -34.417969 46.25 -34.226562 46.046875 -34.015625 45.867188 C -33.328125 45.304688 -32.613281 44.773438 -31.878906 44.269531 C -31.144531 43.769531 -30.390625 43.300781 -29.613281 42.863281 C -28.839844 42.425781 -28.046875 42.023438 -27.234375 41.65625 C -26.425781 41.285156 -25.601562 40.953125 -24.765625 40.652344 C -23.925781 40.355469 -23.074219 40.09375 -22.214844 39.867188 C -21.355469 39.640625 -20.484375 39.453125 -19.609375 39.300781 C -18.730469 39.148438 -17.851562 39.035156 -16.964844 38.960938 C -16.078125 38.882812 -15.1875 38.84375 -14.296875 38.84375 C -13.410156 38.84375 -12.519531 38.882812 -11.632812 38.960938 C -10.746094 39.035156 -9.863281 39.148438 -8.988281 39.300781 C -8.109375 39.453125 -7.242188 39.640625 -6.382812 39.867188 C -5.519531 40.09375 -4.671875 40.355469 -3.832031 40.652344 C -2.996094 40.953125 -2.171875 41.285156 -1.359375 41.65625 C -0.550781 42.023438 0.242188 42.425781 1.015625 42.863281 C 1.792969 43.300781 2.546875 43.769531 3.28125 44.269531 C 4.019531 44.773438 4.730469 45.304688 5.421875 45.867188 C 5.753906 46.148438 6.039062 46.476562 6.273438 46.847656 C 6.507812 47.214844 6.683594 47.613281 6.792969 48.035156 C 6.90625 48.460938 6.953125 48.890625 6.933594 49.328125 C 6.914062 49.765625 6.828125 50.191406 6.675781 50.601562 C 6.527344 51.015625 6.316406 51.394531 6.050781 51.742188 C 5.785156 52.089844 5.46875 52.390625 5.109375 52.640625 C 4.753906 52.890625 4.363281 53.082031 3.945312 53.214844 C 3.527344 53.347656 3.097656 53.410156 2.660156 53.410156 Z M 2.660156 53.410156 " fill-opacity="1" fill-rule="nonzero"/><path fill="#ffffff" d="M 5.738281 31.066406 C 4.554688 31.066406 3.546875 30.648438 2.710938 29.8125 L -8.804688 18.300781 C -8.996094 18.101562 -9.167969 17.882812 -9.320312 17.652344 C -9.46875 17.417969 -9.597656 17.171875 -9.699219 16.914062 C -9.804688 16.65625 -9.878906 16.390625 -9.929688 16.117188 C -9.980469 15.84375 -10.007812 15.570312 -10.003906 15.292969 C -10 15.011719 -9.972656 14.738281 -9.917969 14.464844 C -9.859375 14.195312 -9.777344 13.929688 -9.671875 13.675781 C -9.5625 13.417969 -9.433594 13.175781 -9.277344 12.945312 C -9.125 12.714844 -8.949219 12.5 -8.75 12.304688 C -8.554688 12.105469 -8.339844 11.929688 -8.109375 11.777344 C -7.878906 11.621094 -7.636719 11.492188 -7.378906 11.382812 C -7.125 11.277344 -6.859375 11.195312 -6.589844 11.136719 C -6.316406 11.082031 -6.042969 11.054688 -5.765625 11.050781 C -5.484375 11.046875 -5.210938 11.074219 -4.9375 11.125 C -4.664062 11.175781 -4.398438 11.253906 -4.140625 11.355469 C -3.882812 11.457031 -3.636719 11.585938 -3.40625 11.734375 C -3.171875 11.886719 -2.953125 12.058594 -2.753906 12.25 L 8.761719 23.746094 C 9.058594 24.042969 9.308594 24.382812 9.507812 24.753906 C 9.707031 25.128906 9.847656 25.519531 9.929688 25.9375 C 10.015625 26.351562 10.035156 26.769531 9.992188 27.1875 C 9.953125 27.609375 9.851562 28.015625 9.6875 28.40625 C 9.527344 28.796875 9.3125 29.15625 9.042969 29.484375 C 8.773438 29.8125 8.464844 30.089844 8.113281 30.328125 C 7.761719 30.5625 7.382812 30.742188 6.976562 30.863281 C 6.574219 30.984375 6.160156 31.046875 5.738281 31.046875 Z M 5.738281 31.066406 " fill-opacity="1" fill-rule="nonzero"/><path fill="#ffffff" d="M -5.777344 31.066406 C -6.203125 31.066406 -6.617188 31.003906 -7.019531 30.878906 C -7.425781 30.757812 -7.804688 30.578125 -8.15625 30.34375 C -8.507812 30.109375 -8.816406 29.828125 -9.085938 29.5 C -9.355469 29.171875 -9.570312 28.816406 -9.730469 28.425781 C -9.890625 28.035156 -9.992188 27.628906 -10.035156 27.207031 C -10.078125 26.785156 -10.054688 26.367188 -9.972656 25.953125 C -9.890625 25.539062 -9.75 25.144531 -9.550781 24.769531 C -9.351562 24.398438 -9.101562 24.0625 -8.804688 23.761719 L 2.710938 12.25 C 2.910156 12.058594 3.128906 11.886719 3.363281 11.734375 C 3.59375 11.585938 3.839844 11.457031 4.097656 11.355469 C 4.355469 11.253906 4.621094 11.175781 4.894531 11.125 C 5.167969 11.074219 5.445312 11.046875 5.722656 11.050781 C 6 11.054688 6.273438 11.082031 6.546875 11.136719 C 6.816406 11.195312 7.082031 11.277344 7.339844 11.382812 C 7.59375 11.492188 7.835938 11.621094 8.066406 11.777344 C 8.300781 11.929688 8.511719 12.105469 8.707031 12.304688 C 8.90625 12.5 9.082031 12.714844 9.234375 12.945312 C 9.390625 13.175781 9.523438 13.417969 9.628906 13.675781 C 9.738281 13.929688 9.816406 14.195312 9.875 14.464844 C 9.929688 14.738281 9.960938 15.011719 9.960938 15.292969 C 9.964844 15.570312 9.941406 15.84375 9.886719 16.117188 C 9.835938 16.390625 9.761719 16.65625 9.65625 16.914062 C 9.554688 17.171875 9.425781 17.417969 9.277344 17.652344 C 9.125 17.882812 8.953125 18.101562 8.761719 18.300781 L -2.753906 29.8125 C -3.589844 30.648438 -4.597656 31.066406 -5.777344 31.066406 Z M -5.777344 31.066406 " fill-opacity="1" fill-rule="nonzero"/></svg>