<svg xmlns="http://www.w3.org/2000/svg" width="500" height="500" version="1.0" viewBox="0 0 375 375"><defs><clipPath id="a"><path d="M8.438 49H152v82H8.438Zm0 0"/></clipPath><clipPath id="b"><path d="M250 246h116.938v127H250Zm0 0"/></clipPath></defs><path fill="#221f1f" fill-opacity=".35" d="M108.207 9.703v83.621h82.863"/><path fill="#107c42" d="M224.043 2.102H88.762c-11.836 0-21.985 10.136-21.985 21.96v285.489c0 11.824 10.149 21.96 21.985 21.96h195.316c11.836 0 21.98-10.136 21.98-21.96V84.875Zm0 0"/><path fill="#221f1f" fill-opacity=".35" d="M224.043 2.102v82.773h82.016"/><path fill="#f1f2f2" d="M138.648 128.797H21.965c-6.762 0-12.684-5.91-12.684-12.668V62.918c0-6.758 5.922-12.672 12.684-12.672H137.8c6.765 0 12.683 5.914 12.683 12.672v54.055c.848 6.757-5.074 11.824-11.836 11.824m0 0"/><g clip-path="url(#a)"><path fill="#107c42" d="M138.648 130.488H21.965c-7.61 0-13.527-5.914-13.527-13.515V62.918c0-7.602 5.917-13.516 13.527-13.516H137.8c7.61 0 13.531 5.914 13.531 13.516v54.055c.844 6.757-5.922 13.515-12.684 13.515M21.965 51.09c-6.762 0-11.836 5.07-11.836 11.828v54.055c0 6.757 5.074 11.824 11.836 11.824H137.8c6.765 0 11.84-5.067 11.84-11.824V62.918c0-6.758-5.075-11.828-11.84-11.828Zm0 0"/></g><path fill="#107c42" d="m60.86 106.836-6.766-10.133-5.918 10.133H38.03l10.992-17.734-10.992-16.895h9.301l6.762 10.137 5.922-10.137h9.3L58.324 89.102l10.992 16.89H60.86ZM82.844 100.082h10.992v6.754h-19.45V73.05h8.458ZM103.137 105.992c-1.692-.844-3.383-1.687-5.074-3.379-.844-1.687-1.692-3.379-1.692-5.91h8.457c0 .844.844 2.531 1.692 2.531.843.848 1.687.848 2.535.848.843 0 2.535 0 2.535-.848.847-.843.847-1.687.847-2.53 0-.849 0-1.692-.847-1.692-.844-.844-.844-.844-1.692-1.688-.843 0-1.691-.844-3.378-.844-2.54-.847-4.23-1.69-5.075-1.69-1.691-.845-2.539-1.688-3.382-3.38-.844-1.687-1.692-3.379-1.692-5.066 0-3.38.848-5.914 3.383-7.602 2.535-1.691 5.074-2.535 9.3-2.535 3.383 0 6.766.844 9.301 2.535 2.536 1.688 3.383 4.223 3.383 7.602h-9.3c0-.844-.848-1.692-.848-2.535-.844-.844-1.692-.844-2.535-.844-.848 0-1.692 0-2.535.844-.848.843-.848 1.691-.848 2.535s.848 1.687 1.691 2.531c.844.848 2.535 1.691 5.075 1.691q3.803 1.265 5.07 2.536c1.691.843 2.539 1.687 3.383 3.378.847 1.688 1.691 3.375 1.691 5.067 0 1.687-.844 3.379-1.691 5.066-.844 1.692-2.536 2.535-4.227 3.38-1.691.843-4.227 1.69-6.766 1.69-2.535-.847-4.226-.847-6.761-1.69m0 0"/><g clip-path="url(#b)"><path fill="#33c481" d="M333.96 310.395v-64.192h-50.73v64.192h-32.972l29.59 31.25 28.75 31.253 28.746-31.253 29.594-31.25Zm0 0"/></g><path fill="#fff" d="M112.438 199.746h67.64v19.426h-67.64ZM112.438 237.754h67.64v19.43h-67.64ZM193.605 199.746h67.641v19.426h-67.64ZM193.605 237.754h67.641v19.43h-67.64Zm0 0"/></svg>