<svg version="1.1" id="Layer_1" xmlns="http://www.w3.org/2000/svg" xmlns:xlink="http://www.w3.org/1999/xlink" x="0px" y="0px"
	 width="100%" viewBox="0 0 1920 1080" enable-background="new 0 0 1920 1080" xml:space="preserve">
<path fill="#000000" opacity="1.000000" stroke="none" 
	d="
M1405.000000,1081.000000 
	C936.666748,1081.000000 468.833496,1081.000000 1.000188,1081.000000 
	C1.000126,721.000122 1.000126,361.000305 1.000063,1.000333 
	C640.999756,1.000222 1280.999512,1.000222 1920.999512,1.000111 
	C1920.999634,360.999664 1920.999634,720.999329 1920.999756,1080.999512 
	C1749.166626,1081.000000 1577.333374,1081.000000 1405.000000,1081.000000 
M330.500000,803.000000 
	C479.486694,803.000000 628.473389,803.000000 777.460083,802.999878 
	C778.793335,802.999878 780.131775,803.073914 781.459106,802.984558 
	C792.045227,802.271729 798.490356,793.537659 796.007812,783.305359 
	C794.307800,776.298279 787.697144,772.001160 778.587524,772.001099 
	C556.264160,771.999756 333.940735,772.000000 111.617355,772.000000 
	C109.516327,772.000000 107.415291,772.000000 105.000000,772.000000 
	C105.000000,769.404663 105.000008,767.431458 105.000000,765.458252 
	C104.999977,724.460083 105.016350,683.461975 104.990051,642.463806 
	C104.982048,629.981628 95.230705,622.126770 84.410042,626.070557 
	C77.303238,628.660767 74.050087,633.359924 74.038399,643.707397 
	C73.963280,710.204285 73.982147,776.701355 74.045082,843.198303 
	C74.048805,847.128723 74.161682,851.199402 75.143196,854.965210 
	C80.789711,876.629272 96.188858,890.887146 119.229851,890.928162 
	C215.058578,891.098877 310.887817,891.000000 406.716858,891.000000 
	C408.666779,891.000000 410.616730,891.000000 412.691010,891.000000 
	C412.691010,920.562195 412.691010,949.615662 412.691010,979.000366 
	C402.413239,979.000366 392.440308,978.910461 382.469727,979.026245 
	C372.952820,979.136719 366.124725,990.285400 369.941864,998.973145 
	C373.218414,1006.430603 379.209320,1008.991821 386.778656,1008.992981 
	C463.608551,1009.004395 540.438477,1009.000000 617.268372,1008.999878 
	C617.934998,1008.999878 618.603394,1009.030273 619.268005,1008.993042 
	C626.959167,1008.561768 633.667114,1002.905762 634.960449,995.773376 
	C636.013245,989.967346 631.387390,981.951782 625.180847,979.826965 
	C622.485291,978.904114 619.361694,979.064941 616.429199,979.032593 
	C608.010559,978.939880 599.590271,979.000000 591.256958,979.000000 
	C591.256958,949.306152 591.256958,920.370239 591.256958,891.000000 
	C593.466492,891.000000 595.425415,891.000000 597.384338,891.000000 
	C691.880127,891.000000 786.375854,891.013611 880.871643,890.957214 
	C885.295898,890.954590 889.821106,890.811584 894.126404,889.908997 
	C913.526306,885.841919 928.806885,868.531677 928.842590,849.095154 
	C929.125427,695.102600 929.070923,541.109131 928.752930,387.116699 
	C928.739563,380.633484 926.200134,373.541138 922.954895,367.795990 
	C913.811707,351.609222 898.887207,344.986816 880.671753,344.995789 
	C849.673157,345.011047 818.674561,345.000000 787.675964,345.000000 
	C785.877441,345.000000 784.078857,345.000000 782.345703,345.000000 
	C768.580688,236.983261 670.590820,180.339828 579.863953,202.961243 
	C578.980774,201.889053 578.125427,200.722244 577.141846,199.675964 
	C563.274963,184.925323 547.229187,173.169189 528.570618,165.249893 
	C501.249329,153.653870 472.962372,150.764633 443.901306,157.033386 
	C417.074432,162.820160 393.567688,175.155045 374.140045,194.546555 
	C363.464966,205.201782 354.119690,217.094543 348.031677,231.130142 
	C346.719238,234.155838 344.890717,234.984650 341.641296,235.129852 
	C334.939362,235.429306 328.176117,235.985168 321.604950,237.281372 
	C300.908936,241.363846 281.876129,249.361435 264.806915,261.990143 
	C247.615738,274.709076 233.633835,290.233307 224.103912,309.320679 
	C218.478180,320.588440 214.335373,332.596619 209.225723,345.000000 
	C208.695526,345.000000 206.879395,345.000000 205.063248,345.000000 
	C178.564438,345.000000 152.065475,344.958038 125.566948,345.044067 
	C121.471474,345.057343 117.379150,345.674103 113.283226,345.983398 
	C91.438927,347.632996 74.058136,368.966583 74.021057,390.874939 
	C73.949135,433.372925 73.978745,475.871124 74.046562,518.369141 
	C74.051216,521.284546 74.399597,524.284424 75.145142,527.097412 
	C77.213852,534.902710 87.535995,540.212891 95.125389,536.545349 
	C102.069519,533.189514 104.984703,527.876282 104.988579,520.569580 
	C105.011597,477.238190 104.994423,433.906799 105.004852,390.575409 
	C105.006882,382.133942 111.152496,376.008209 119.613754,376.004547 
	C147.445847,375.992523 175.277924,376.000061 203.110016,376.000061 
	C204.690002,376.000061 206.269989,376.000061 207.781952,376.000061 
	C208.116913,407.792664 220.289230,433.509735 243.421906,453.754333 
	C266.582642,474.023499 294.309418,481.111267 324.669922,478.783142 
	C324.669922,503.604767 324.669922,527.658569 324.669922,552.000000 
	C322.534332,552.000000 320.721527,552.000000 318.908722,552.000000 
	C282.077026,552.000000 245.245346,551.999817 208.413651,552.000183 
	C197.751923,552.000244 192.005539,557.704346 192.001434,568.307739 
	C191.995712,583.119751 192.000000,597.931702 192.000000,612.648315 
	C165.056671,618.967407 142.711441,648.089661 149.004501,680.854919 
	C154.005554,706.893188 174.711655,726.666687 203.020218,728.919983 
	C231.164627,731.160156 263.114319,712.115051 266.704926,673.272461 
	C267.869843,660.670898 264.107544,648.610779 257.312042,637.838745 
	C249.245178,625.051453 237.804016,616.536499 223.401001,612.690979 
	C223.401001,602.264038 223.401001,592.198486 223.401001,582.000000 
	C225.798477,582.000000 227.795181,582.000000 229.791901,582.000000 
	C265.790283,581.999939 301.788696,582.021057 337.787048,581.986877 
	C348.508514,581.976746 354.995178,575.465149 354.997772,564.879883 
	C355.004425,538.047729 355.000000,511.215607 355.000000,484.383484 
	C355.000000,482.638733 355.000000,480.893982 355.000000,478.999298 
	C360.451111,478.999298 365.115692,479.098450 369.774292,478.973022 
	C375.059570,478.830750 379.244659,476.526520 381.999146,471.950470 
	C385.151520,466.713409 384.924347,461.153992 382.298248,455.979248 
	C379.614960,450.691803 374.692596,449.048431 368.824097,448.931671 
	C345.127014,448.460114 321.336670,450.753082 297.748871,446.973846 
	C277.916565,443.796326 262.340271,433.354248 251.153534,417.050720 
	C239.695221,400.351410 236.210327,381.703766 238.788574,361.382111 
	C241.807648,337.585968 251.869659,317.447845 267.656494,300.015594 
	C276.939209,289.765381 288.234375,281.999756 300.809937,275.918579 
	C315.532928,268.798981 331.067871,265.635162 347.158661,265.108643 
	C359.194336,264.714844 367.863434,259.696136 372.986511,248.898804 
	C382.783142,228.251404 396.945129,211.563797 416.696960,199.807953 
	C432.860687,190.187698 450.457794,184.975616 469.118164,184.135712 
	C484.617065,183.438095 499.879181,186.203873 514.181641,192.200684 
	C529.198975,198.497223 542.821350,207.206879 553.091919,218.704575 
	C544.377319,226.981247 535.601013,234.827927 527.395325,243.231842 
	C516.810730,254.072113 508.522614,266.612885 502.863373,280.691742 
	C500.034882,287.728302 501.093231,293.834839 507.447510,298.948944 
	C512.019714,302.628723 519.901245,303.627777 524.314453,299.637543 
	C527.915710,296.381470 530.425232,291.744049 532.864929,287.407440 
	C543.235962,268.972656 556.399780,253.421509 574.896118,242.395248 
	C595.982239,229.825134 618.531860,226.162384 642.240601,230.278839 
	C666.416687,234.476440 687.962769,244.551132 706.719177,260.912476 
	C718.430359,271.128296 727.986877,282.869659 735.444458,296.174530 
	C749.735840,321.671387 754.716919,349.186981 751.028687,378.253723 
	C749.108093,393.389008 744.865295,407.527954 735.092346,419.657349 
	C721.216003,436.879578 703.789062,447.698822 681.304626,447.890900 
	C637.643066,448.263885 593.975769,447.895142 550.311584,448.045044 
	C529.044983,448.118042 507.780334,448.689636 486.514160,448.988159 
	C478.612946,449.099091 472.456329,454.848877 472.001343,462.701263 
	C471.496857,471.407776 476.305939,476.930298 486.998779,479.713318 
	C486.998779,522.803833 487.026917,565.956543 486.865723,609.108521 
	C486.860779,610.430115 485.149841,612.420288 483.787140,612.951416 
	C475.513763,616.175659 467.594208,620.049927 461.262085,626.331543 
	C448.373535,639.117310 441.906525,654.339844 442.855408,672.925659 
	C443.889557,693.181824 452.972748,708.825134 469.405548,719.502380 
	C492.386444,734.434204 520.370667,732.166504 540.880188,714.439026 
	C563.840515,694.593201 567.774475,661.112427 550.538330,636.144653 
	C542.407837,624.367126 531.434509,616.014282 517.362976,612.738953 
	C517.362976,568.025391 517.362976,523.623535 517.362976,479.240692 
	C558.661682,479.240692 599.596985,479.240692 641.000000,479.240692 
	C641.000000,481.262238 641.000000,483.050385 641.000000,484.838531 
	C641.000000,511.170685 640.994629,537.502869 641.002441,563.835022 
	C641.005920,575.501465 647.552063,581.996521 659.301636,581.998169 
	C695.633362,582.003174 731.965027,582.000000 768.296753,582.000000 
	C770.072266,582.000000 771.847778,582.000000 773.996460,582.000000 
	C773.996460,592.525208 774.105469,602.492737 773.856140,612.451294 
	C773.825562,613.671021 772.049011,615.083435 770.784851,615.995300 
	C764.970642,620.189453 758.057190,623.335571 753.360168,628.511230 
	C740.458069,642.728210 734.587158,659.434021 737.854431,679.063354 
	C739.859619,691.110229 744.548523,701.647095 752.899414,710.244141 
	C767.413818,725.186401 785.037842,731.537903 805.975220,728.059937 
	C821.912903,725.412476 834.522034,717.643799 844.049988,704.713196 
	C853.034119,692.520630 856.624756,678.972229 855.073792,663.823425 
	C853.345581,646.943359 845.819214,633.528748 832.734131,622.908630 
	C824.314453,616.074951 814.473022,612.700928 804.000000,610.541138 
	C804.000000,596.215820 803.659119,582.214111 804.115845,568.238464 
	C804.438232,558.373718 796.343750,551.701050 788.014771,551.803650 
	C751.188721,552.257507 714.353821,552.000000 677.522156,552.000000 
	C675.764160,552.000000 674.006104,552.000000 672.399536,552.000000 
	C672.399536,527.250183 672.399536,503.194733 672.399536,479.145874 
	C730.861023,479.016388 775.223450,441.327118 782.564758,376.000000 
	C784.324402,376.000000 786.130432,376.000000 787.936462,376.000000 
	C819.601685,376.000000 851.271729,376.300934 882.929077,375.802216 
	C891.550842,375.666412 899.128723,382.571198 899.115417,392.149841 
	C898.941528,516.977356 899.000000,641.805176 899.000000,766.632935 
	C899.000000,768.375854 899.000000,770.118713 899.000000,772.000244 
	C879.368958,772.000244 860.539429,771.948486 841.710327,772.022461 
	C832.527222,772.058533 824.096558,780.139587 825.040283,787.768250 
	C826.177124,796.958313 832.985596,802.974121 842.380798,802.991943 
	C857.880066,803.021301 873.379395,803.000000 888.878723,803.000000 
	C892.152832,803.000000 895.426941,803.000000 898.991882,803.000000 
	C898.991882,818.091858 899.249695,832.570801 898.860901,847.032349 
	C898.712158,852.567993 895.364380,857.121826 890.132996,859.175476 
	C886.745239,860.505371 882.809875,860.929077 879.119690,860.930237 
	C627.797607,861.007202 376.475525,860.999939 125.153435,860.999878 
	C124.153481,860.999878 123.144775,861.085876 122.154907,860.985779 
	C111.779587,859.936523 104.824532,857.129944 104.990501,843.147705 
	C105.049835,838.148682 105.000000,833.148254 105.000000,828.148499 
	C105.000000,819.876953 105.000000,811.605469 105.000000,803.000000 
	C180.234650,803.000000 254.867325,803.000000 330.500000,803.000000 
M1580.525269,434.024658 
	C1577.042725,418.913971 1571.871216,404.486908 1564.447021,390.785492 
	C1551.888184,367.607941 1534.015503,350.066376 1510.674561,337.918884 
	C1487.120605,325.660675 1461.709351,320.660370 1435.572266,320.179321 
	C1397.594482,319.480255 1359.594482,320.000000 1321.603882,320.000000 
	C1319.838257,320.000000 1318.072510,320.000000 1316.338013,320.000000 
	C1316.338013,454.331604 1316.338013,588.029114 1316.338013,721.005981 
	C1356.913696,721.005981 1397.148682,721.092651 1437.383057,720.959900 
	C1451.841797,720.912170 1466.043579,718.741943 1480.067627,715.057861 
	C1500.878662,709.590698 1519.810547,700.470703 1536.045166,686.347595 
	C1554.809448,670.023926 1567.025146,649.258972 1575.037720,625.923157 
	C1584.310181,598.918579 1587.444214,570.773438 1588.753052,542.541077 
	C1589.689697,522.338562 1588.375122,502.028870 1587.958130,481.769196 
	C1587.884155,478.166504 1587.464844,474.546356 1586.899048,470.982849 
	C1584.981201,458.904388 1582.926147,446.847748 1580.525269,434.024658 
M1240.023560,506.466736 
	C1253.906006,488.941528 1261.370361,468.800415 1262.808716,446.699554 
	C1263.558838,435.175018 1262.662109,423.501709 1261.925293,411.932739 
	C1261.046997,398.142212 1257.281860,385.110596 1250.508423,372.922699 
	C1239.268066,352.697571 1222.593140,338.967926 1201.086792,330.994080 
	C1179.655518,323.048035 1157.250488,320.317444 1134.591431,320.090942 
	C1099.934448,319.744476 1065.271606,320.000000 1030.611206,320.000000 
	C1028.844727,320.000000 1027.078247,320.000000 1025.345093,320.000000 
	C1025.345093,454.333069 1025.345093,588.036865 1025.345093,721.602295 
	C1045.079346,721.602295 1064.466064,721.602295 1084.188843,721.602295 
	C1084.188843,663.275330 1084.188843,605.345459 1084.188843,547.000000 
	C1086.487549,547.000000 1088.449585,547.041260 1090.409546,546.993774 
	C1117.373901,546.341187 1144.575806,549.522034 1171.214233,543.767883 
	C1183.974854,541.011597 1196.575195,536.656006 1208.573364,531.465027 
	C1220.816284,526.168091 1230.645752,516.979431 1240.023560,506.466736 
M1661.000000,456.500000 
	C1661.000000,544.896545 1661.000000,633.293091 1661.000000,721.652588 
	C1732.341187,721.652588 1803.043701,721.652588 1873.602417,721.652588 
	C1873.602417,705.583435 1873.602417,689.864624 1873.602417,673.820435 
	C1822.281616,673.820435 1771.357666,673.820435 1719.951172,673.820435 
	C1719.951172,555.796448 1719.951172,438.105743 1719.951172,320.315491 
	C1700.082275,320.315491 1680.699585,320.315491 1661.000000,320.315491 
	C1661.000000,365.586853 1661.000000,410.543427 1661.000000,456.500000 
M947.626770,75.930809 
	C930.875000,62.642982 912.321411,52.486732 892.350647,45.055084 
	C866.257935,35.345280 839.223083,31.032635 811.341553,31.946421 
	C800.916870,32.288078 794.002380,38.364342 794.000000,47.957546 
	C793.997375,58.559135 800.546570,64.493462 811.278564,65.122452 
	C825.358582,65.947670 839.524841,66.823860 853.410095,69.140343 
	C884.747681,74.368439 912.112854,88.568115 935.773743,109.461487 
	C956.570679,127.825912 973.335449,149.548172 983.100830,175.762009 
	C988.068054,189.095810 992.054199,202.972687 994.688110,216.942627 
	C996.840820,228.359879 996.640320,240.272583 996.895386,251.978424 
	C997.077576,260.339691 1004.450867,269.080566 1013.398254,268.844177 
	C1022.118103,268.613831 1030.221436,263.334930 1029.975342,252.115646 
	C1029.761108,242.347900 1029.928223,232.518341 1028.844849,222.837173 
	C1027.597290,211.687729 1025.712769,200.540176 1023.117493,189.626617 
	C1018.841309,171.644531 1011.612061,154.783813 1002.401672,138.694565 
	C994.060974,124.124550 984.337097,110.603127 972.802002,98.515450 
	C965.177612,90.525711 956.528870,83.513397 947.626770,75.930809 
M844.902039,133.405762 
	C846.435181,133.931885 847.945496,134.540955 849.504944,134.971756 
	C874.632751,141.913147 894.602112,156.412186 909.958252,177.170120 
	C925.897583,198.716476 932.527832,223.320297 931.946533,249.939438 
	C931.815063,255.960419 933.657104,260.736176 938.185913,264.779022 
	C943.322083,269.363953 948.940491,269.701324 954.985168,267.482391 
	C961.023743,265.265686 964.904663,259.885498 964.980713,253.685791 
	C965.142517,240.492081 964.816467,227.401459 962.132935,214.327713 
	C956.392029,186.358734 943.696655,162.047714 923.912842,141.781174 
	C915.646851,133.313446 905.773010,126.193871 895.885681,119.573151 
	C869.507385,101.909729 839.847290,95.996506 808.542908,97.043015 
	C800.957947,97.296585 794.539185,104.608513 793.929260,112.268791 
	C793.073486,123.015900 800.931946,129.179352 806.798279,129.860291 
	C819.195068,131.299240 831.673035,132.038574 844.902039,133.405762 
M860.080688,219.449478 
	C861.721436,223.329361 864.114868,227.074921 864.836548,231.118820 
	C866.099060,238.193695 866.283081,245.457077 867.012878,252.631912 
	C868.070007,263.025208 874.002441,268.034271 883.277039,268.897430 
	C890.872070,269.604218 899.804749,261.948334 899.890564,254.642639 
	C899.993408,245.887878 900.490845,236.879776 898.742798,228.409546 
	C893.474915,202.883560 879.203674,183.418991 856.057007,171.095749 
	C841.684387,163.443817 826.008118,161.324860 809.846863,161.958633 
	C800.518494,162.324478 794.406738,169.385178 793.846802,179.466248 
	C793.457947,186.466522 802.017761,195.752228 810.005493,195.187943 
	C815.991028,194.765121 822.161682,195.673141 828.137756,196.664825 
	C842.125854,198.986038 852.000671,207.526276 860.080688,219.449478 
M835.000000,254.273895 
	C835.904785,245.613571 833.055359,238.632172 826.421021,232.808319 
	C818.383911,225.753204 802.317383,225.080811 794.672974,232.124420 
	C782.624146,243.226349 782.388428,261.976959 795.262390,271.698242 
	C803.193909,277.687439 811.944885,278.806030 821.024292,274.441071 
	C829.076660,270.569855 833.922729,264.198669 835.000000,254.273895 
M92.055229,610.993530 
	C98.643448,609.167053 104.008461,605.703979 104.175484,598.268921 
	C104.448708,586.106323 104.634018,573.873657 103.582138,561.781372 
	C103.129280,556.575378 98.731247,551.225464 87.654388,551.951660 
	C81.843750,552.332642 75.699753,556.426819 75.202141,562.453308 
	C74.278656,573.637451 73.420189,584.996094 74.393517,596.119446 
	C75.339844,606.934326 81.138275,610.995239 92.055229,610.993530 
M433.486694,479.000000 
	C436.980316,478.999756 440.505829,479.301788 443.961090,478.937683 
	C451.646423,478.127747 458.172211,472.626740 458.013519,463.717773 
	C457.863342,455.286255 451.782349,449.022675 443.544159,449.005157 
	C433.396027,448.983612 423.244232,449.165527 413.100769,448.947021 
	C405.145996,448.775665 400.013550,452.951050 398.239655,462.760376 
	C397.343719,467.714905 400.434296,476.304901 408.825470,477.797516 
	C416.541229,479.169952 424.589539,478.673248 433.486694,479.000000 
M1430.000000,817.424072 
	C1430.000000,819.854736 1430.000000,822.285400 1430.000000,824.996521 
	C1439.293945,824.996521 1448.002686,825.616882 1456.548340,824.706787 
	C1460.230957,824.314575 1464.480103,821.487671 1466.907959,818.497192 
	C1474.770874,808.812988 1474.505859,797.520203 1470.576904,786.439331 
	C1468.737671,781.252014 1464.200562,776.791077 1458.682983,776.271606 
	C1449.323975,775.390686 1439.821899,776.029480 1430.000000,776.029480 
	C1430.000000,789.852051 1430.000000,803.148071 1430.000000,817.424072 
M1498.881348,794.553101 
	C1498.020386,796.799744 1496.774170,798.979370 1496.369507,801.305420 
	C1495.092041,808.649109 1496.368164,819.730469 1504.276733,823.910645 
	C1510.043213,826.958496 1515.292847,826.273499 1521.235840,823.432007 
	C1520.699585,826.229919 1520.137817,829.665710 1518.345093,830.520935 
	C1515.926636,831.674683 1511.254761,832.093689 1509.848999,830.625977 
	C1505.781738,826.379456 1501.448364,828.632446 1497.194946,828.065552 
	C1497.032715,833.164246 1498.451172,835.568848 1502.171875,837.648132 
	C1508.502319,841.185852 1515.097900,840.511475 1521.762329,839.100891 
	C1528.146484,837.749451 1531.532715,833.029602 1531.797119,827.270264 
	C1532.389526,814.363464 1531.982422,801.410767 1531.982422,788.240967 
	C1528.474976,788.240967 1525.397949,788.240967 1522.331665,788.240967 
	C1522.093140,789.407349 1521.884521,790.428101 1521.647949,791.584839 
	C1513.282104,784.842590 1506.106934,785.616882 1498.881348,794.553101 
M1323.000000,817.424072 
	C1323.000000,812.596436 1323.250366,807.751770 1322.921997,802.946533 
	C1322.651611,798.992188 1324.674561,796.491821 1327.930420,796.301575 
	C1331.774780,796.076965 1333.183472,799.007263 1333.063721,802.909180 
	C1332.840942,810.165588 1332.999878,817.433716 1332.999878,824.638367 
	C1337.010254,824.638367 1340.394409,824.638367 1343.999756,824.638367 
	C1343.999756,823.127014 1343.999634,821.976746 1343.999634,820.826538 
	C1344.000122,814.833618 1344.027832,808.840576 1343.991455,802.847900 
	C1343.969482,799.220520 1345.706909,796.532288 1349.170532,796.196716 
	C1352.422974,795.881531 1353.898071,798.346680 1354.057983,801.615784 
	C1354.184814,804.206787 1354.880249,806.774170 1354.956055,809.362793 
	C1355.105469,814.461853 1355.000000,819.568420 1355.000000,824.652771 
	C1358.648315,824.652771 1361.700195,824.652771 1365.000000,824.652771 
	C1365.000000,816.834412 1364.813599,809.355225 1365.059326,801.890259 
	C1365.254883,795.947266 1363.646240,791.266052 1358.016846,788.492493 
	C1351.944336,785.500549 1347.001953,787.589905 1342.491821,791.797424 
	C1335.420776,785.532959 1329.977051,785.423218 1322.346436,791.598450 
	C1322.087769,790.341248 1321.856445,789.216858 1321.655640,788.240723 
	C1318.323242,788.240723 1315.382080,788.240723 1312.283813,788.240723 
	C1312.283813,800.532532 1312.283813,812.582153 1312.283813,824.664246 
	C1315.960938,824.664246 1319.344849,824.664246 1323.000000,824.664246 
	C1323.000000,822.354309 1323.000000,820.377930 1323.000000,817.424072 
M143.378662,817.190125 
	C142.527893,817.676086 141.701508,818.212097 140.822388,818.639771 
	C135.267059,821.342224 133.265625,826.533630 133.195160,831.931763 
	C133.113144,838.215332 136.459930,843.851379 142.563095,845.583191 
	C151.258728,848.050598 160.422485,848.480225 169.183365,845.291321 
	C176.262283,842.714600 179.545410,835.867065 177.965439,828.194946 
	C176.717331,822.134277 170.216766,817.022827 163.669540,817.005920 
	C157.187637,816.989136 150.705582,817.020264 143.378662,817.190125 
M1082.177368,807.999878 
	C1090.588989,807.721985 1097.090088,802.440002 1097.906250,792.978516 
	C1098.567993,785.307373 1095.044067,777.479553 1087.775146,776.614197 
	C1078.352051,775.492432 1068.694336,776.340393 1059.276245,776.340393 
	C1059.276245,792.739990 1059.276245,808.679199 1059.276245,824.668457 
	C1062.947266,824.668457 1066.333862,824.668457 1070.242065,824.668457 
	C1070.242065,818.945068 1070.242065,813.541565 1070.242065,808.000000 
	C1074.265625,808.000000 1077.759033,808.000000 1082.177368,807.999878 
M1211.928223,791.759521 
	C1208.273193,790.191956 1204.720093,787.644836 1200.942993,787.252258 
	C1191.911865,786.313354 1183.364380,788.599365 1182.181885,800.721313 
	C1186.725830,800.820374 1191.450928,802.771240 1194.741943,797.176208 
	C1195.366699,796.114258 1199.132202,796.708191 1201.408081,796.937927 
	C1202.010376,796.998718 1202.462524,798.548340 1202.983521,799.414368 
	C1201.491699,800.282104 1200.093994,801.440186 1198.489502,801.960938 
	C1194.352295,803.303650 1190.061279,804.182251 1185.948730,805.588196 
	C1181.648438,807.058289 1180.150391,813.482971 1181.198730,818.355164 
	C1182.250854,823.244507 1185.659180,826.213257 1190.539551,825.905884 
	C1195.042236,825.622253 1199.495361,824.551392 1203.632324,823.881958 
	C1207.361328,826.227417 1211.662842,824.537537 1215.311523,824.878357 
	C1214.817505,821.699036 1214.140259,819.077148 1214.055542,816.436340 
	C1213.874390,810.790833 1214.179565,805.126953 1213.914062,799.488159 
	C1213.803955,797.150146 1212.741943,794.856995 1211.928223,791.759521 
M1403.000000,804.561523 
	C1402.979248,799.661804 1404.193237,793.986816 1399.852295,790.650940 
	C1393.743042,785.956299 1386.274292,785.908813 1379.271851,788.436646 
	C1373.935181,790.363159 1371.394043,794.937317 1371.750488,801.047668 
	C1375.974609,800.432312 1381.024902,803.053528 1383.890625,797.028687 
	C1384.320801,796.124390 1388.299438,796.640930 1390.551880,797.013123 
	C1391.357056,797.146179 1391.911499,798.796631 1392.580444,799.754395 
	C1390.886719,800.508057 1389.253540,801.483704 1387.485962,801.967163 
	C1384.212769,802.862366 1380.724731,803.106079 1377.574097,804.284058 
	C1373.144897,805.940247 1370.251831,809.363953 1370.077148,814.233582 
	C1369.913086,818.807190 1371.070190,823.457092 1375.833130,825.085571 
	C1381.319336,826.961365 1387.085938,827.175110 1390.608032,824.176758 
	C1396.223877,824.588013 1400.445435,824.897156 1404.499268,825.194031 
	C1403.930908,821.525574 1403.267212,818.535217 1403.053223,815.512939 
	C1402.818970,812.204224 1403.000000,808.866150 1403.000000,804.561523 
M1588.926392,800.939270 
	C1590.617798,797.467102 1593.153931,795.098511 1597.218872,796.133118 
	C1598.649414,796.497192 1599.721924,798.268127 1600.958008,799.396606 
	C1599.920898,800.250122 1599.007080,801.505798 1597.819946,801.869202 
	C1595.666260,802.528442 1593.336670,802.587463 1591.104492,803.020569 
	C1586.435059,803.926575 1581.364136,804.625671 1579.652344,809.958862 
	C1578.287109,814.211853 1577.552856,818.726685 1580.930786,822.717651 
	C1583.941040,826.274231 1591.975464,827.391724 1597.319214,824.893188 
	C1598.629150,824.280640 1600.066650,823.137817 1601.297363,823.308411 
	C1605.075806,823.832092 1608.782349,824.874817 1612.132812,825.629272 
	C1611.708252,819.426086 1611.256348,814.255920 1611.032227,809.075867 
	C1610.867188,805.259644 1610.899048,801.427185 1611.027588,797.608154 
	C1611.159668,793.684204 1609.435791,791.104431 1605.962280,789.429077 
	C1600.585449,786.835815 1595.150269,786.611755 1589.327148,787.907959 
	C1583.406982,789.225708 1579.480469,794.514893 1580.671265,800.990356 
	C1583.097412,800.990356 1585.574097,800.990356 1588.926392,800.939270 
M1775.991943,817.713623 
	C1777.430908,820.044739 1778.522095,823.988037 1780.377441,824.388184 
	C1784.939941,825.372131 1789.857422,824.830505 1794.624146,824.668640 
	C1795.971924,824.622864 1797.363037,823.227234 1798.611816,823.390137 
	C1802.302368,823.871338 1805.931763,824.822388 1809.404785,825.551697 
	C1808.846436,820.248779 1808.223267,816.237854 1808.050903,812.207703 
	C1807.838013,807.227600 1808.504028,802.158447 1807.796753,797.271606 
	C1807.416138,794.641479 1805.499634,791.555969 1803.327515,790.000732 
	C1798.457031,786.513062 1792.829224,786.548462 1786.943604,787.884338 
	C1780.413940,789.366272 1776.548340,794.073730 1777.568359,800.972900 
	C1781.292114,800.320374 1785.710693,803.073730 1788.422729,797.565735 
	C1789.056030,796.279541 1792.901611,796.210938 1795.239746,796.305786 
	C1796.186646,796.344177 1797.387817,798.212280 1797.790161,799.466797 
	C1797.944336,799.947510 1796.315796,801.471558 1795.284546,801.765137 
	C1792.954346,802.428528 1790.490356,802.623779 1788.080444,803.006104 
	C1777.375122,804.704468 1775.289673,809.085754 1775.991943,817.713623 
M1139.286133,787.001465 
	C1138.288696,787.002686 1137.277588,786.896851 1136.295898,787.021851 
	C1127.100342,788.192383 1121.902588,790.898438 1122.469238,800.816650 
	C1125.412476,800.816650 1128.368286,800.816650 1131.507690,800.816650 
	C1132.361572,796.122437 1135.911255,795.565491 1139.655518,796.175049 
	C1140.893066,796.376526 1141.861938,798.229431 1142.953613,799.327393 
	C1141.941040,800.202515 1141.051514,801.574280 1139.893188,801.861389 
	C1136.123291,802.795654 1132.226807,803.206482 1128.432007,804.055786 
	C1123.588135,805.139893 1120.880981,809.048523 1120.488403,815.099731 
	C1120.184082,819.790833 1122.806030,824.762817 1127.176514,825.423462 
	C1131.223267,826.035278 1135.527100,825.087830 1139.699219,824.650146 
	C1141.051636,824.508240 1142.416504,823.289673 1143.652466,823.459534 
	C1147.305786,823.961731 1150.897583,824.911743 1155.534302,825.905212 
	C1151.471191,816.148438 1153.424561,807.328186 1153.046509,798.667786 
	C1152.783936,792.651428 1150.685303,789.610657 1144.896362,788.055176 
	C1143.336426,787.636047 1141.739624,787.354004 1139.286133,787.001465 
M1279.999878,807.446228 
	C1279.999512,806.280396 1280.046997,805.112183 1279.990967,803.949036 
	C1279.660278,797.082031 1274.611450,789.935364 1268.491455,788.253235 
	C1260.492798,786.054626 1252.503174,786.586182 1246.784058,792.996521 
	C1240.406738,800.144775 1240.252563,809.125244 1244.373169,817.325562 
	C1247.775635,824.096313 1254.249634,826.247925 1262.105591,826.198853 
	C1272.680176,826.132690 1280.236694,818.396851 1279.999878,807.446228 
M1697.006714,813.150513 
	C1700.011963,827.092834 1717.883545,828.811218 1726.477661,823.250732 
	C1733.733887,818.555908 1734.026001,811.733337 1734.060669,804.318481 
	C1734.118408,791.967041 1721.975098,785.721619 1712.891235,787.179016 
	C1699.452881,789.335205 1693.830688,800.864990 1697.006714,813.150513 
M1685.422363,825.000000 
	C1687.854370,825.000000 1690.286255,825.000000 1692.636230,825.000000 
	C1692.636230,821.649292 1692.636230,818.933838 1692.636230,815.719421 
	C1684.561890,815.719421 1676.843628,815.719421 1668.835449,815.719421 
	C1668.835449,802.289001 1668.835449,789.371277 1668.835449,776.286499 
	C1664.798706,776.286499 1661.084839,776.286499 1657.301147,776.286499 
	C1657.301147,792.601501 1657.301147,808.628296 1657.301147,825.000000 
	C1666.546997,825.000000 1675.494873,825.000000 1685.422363,825.000000 
M1749.232788,802.314270 
	C1752.561646,796.034363 1756.535767,794.100037 1759.171021,798.027039 
	C1762.732056,803.333435 1767.124878,801.874695 1771.916138,801.801941 
	C1772.214966,796.506287 1770.246582,792.598083 1765.990845,790.033142 
	C1755.608276,783.775635 1741.041992,787.771484 1738.750000,801.406250 
	C1736.195312,816.604126 1741.399170,828.228149 1759.999023,825.999939 
	C1766.548462,825.215393 1772.215210,818.205261 1771.667236,811.226257 
	C1768.575439,811.226257 1765.463257,811.226257 1762.408203,811.226257 
	C1762.069458,811.880798 1761.907593,812.640503 1761.438232,813.022644 
	C1759.442871,814.647339 1756.908325,817.766113 1755.405762,817.346863 
	C1753.001587,816.676086 1750.517334,813.953552 1749.449585,811.497314 
	C1748.409058,809.103882 1749.104248,805.955933 1749.232788,802.314270 
M1218.115967,788.841431 
	C1218.115967,791.115601 1218.115967,793.389771 1218.115967,795.749390 
	C1219.927490,795.943848 1221.328979,796.094299 1223.181152,796.293091 
	C1223.181152,806.001526 1223.181152,815.390686 1223.181152,824.608215 
	C1226.737671,824.608215 1229.787109,824.608215 1233.146851,824.608215 
	C1233.146851,814.957703 1233.146851,805.697021 1233.146851,796.174805 
	C1235.516235,796.044922 1237.597656,795.930847 1239.699463,795.815674 
	C1239.699463,793.049866 1239.699463,790.649963 1239.699463,788.199890 
	C1237.333984,788.030029 1235.263428,787.881348 1233.192871,787.732605 
	C1233.016113,787.275574 1232.839478,786.818542 1232.662720,786.361511 
	C1234.607056,785.267151 1236.551392,784.172791 1238.679077,782.975342 
	C1238.679077,780.720886 1238.679077,777.989197 1238.679077,775.294128 
	C1226.590210,774.316345 1224.085938,776.265320 1222.511841,787.792297 
	C1221.277588,787.907104 1219.982910,788.027588 1218.115967,788.841431 
M1575.976685,824.348877 
	C1575.976685,822.378601 1575.976685,820.408325 1575.976685,819.746521 
	C1573.414062,817.704529 1570.375977,816.467163 1570.242676,814.971008 
	C1569.688354,808.749512 1570.009521,802.450012 1570.009521,796.272278 
	C1572.393433,796.024170 1574.138550,795.842529 1575.753296,795.674500 
	C1575.753296,792.954346 1575.753296,790.677124 1575.753296,788.179443 
	C1573.786987,788.045532 1572.047607,787.927063 1569.829102,787.775940 
	C1569.829102,784.358459 1569.829102,781.289612 1569.829102,778.390137 
	C1566.242676,778.390137 1563.188110,778.390137 1559.823486,778.390137 
	C1559.823486,781.733459 1559.823486,784.683716 1559.823486,787.773682 
	C1558.110474,787.947327 1556.701172,788.090210 1555.166504,788.245789 
	C1555.166504,790.858459 1555.166504,793.133972 1555.166504,795.638855 
	C1556.805420,795.906433 1558.328125,796.154968 1560.000000,796.427917 
	C1560.000000,804.079895 1560.261963,811.405518 1559.899048,818.700134 
	C1559.690674,822.891663 1561.515015,825.124023 1565.176880,825.533264 
	C1568.682007,825.925110 1572.290771,825.390015 1575.976685,824.348877 
M1172.000977,813.046875 
	C1172.000977,807.443176 1172.000977,801.839478 1172.000977,796.312500 
	C1174.341919,796.034241 1176.083130,795.827332 1177.603638,795.646606 
	C1177.603638,792.896301 1177.603638,790.511169 1177.603638,788.155029 
	C1175.596802,788.026184 1173.986450,787.922729 1171.895630,787.788513 
	C1171.895630,784.433167 1171.895630,781.368286 1171.895630,778.349609 
	C1168.322510,778.349609 1165.269409,778.349609 1161.902588,778.349609 
	C1161.902588,781.643188 1161.902588,784.588562 1161.902588,787.566772 
	C1160.082031,787.927307 1158.564575,788.227844 1157.281494,788.481934 
	C1157.281494,791.147583 1157.281494,793.418396 1157.281494,795.728333 
	C1158.953735,795.935547 1160.354248,796.109070 1162.000000,796.312988 
	C1162.000000,803.277954 1161.997803,809.908936 1162.000610,816.539856 
	C1162.003662,823.841858 1163.872925,825.769165 1171.240967,825.989502 
	C1173.355347,826.052795 1175.473267,825.999268 1177.772461,825.999268 
	C1177.772461,823.090393 1177.772461,820.669922 1177.772461,818.249390 
	C1177.376709,818.528564 1176.980957,818.807678 1176.585327,819.086853 
	C1175.058960,817.373108 1173.532593,815.659424 1172.000977,813.046875 
M1816.000000,820.343323 
	C1816.085815,821.787476 1816.171753,823.231628 1816.256226,824.651794 
	C1819.982422,824.651794 1823.367310,824.651794 1826.614990,824.651794 
	C1826.614990,808.250000 1826.614990,792.199158 1826.614990,776.262451 
	C1822.953857,776.262451 1819.679810,776.262451 1816.000000,776.262451 
	C1816.000000,790.804321 1816.000000,805.087769 1816.000000,820.343323 
M1113.269531,824.977478 
	C1113.846313,823.677917 1114.902588,822.385742 1114.922852,821.077515 
	C1115.067139,811.751343 1114.999878,802.421875 1115.000000,793.093506 
	C1115.000122,787.493408 1115.000000,781.893311 1115.000000,776.369995 
	C1110.976807,776.369995 1107.591064,776.369995 1104.237549,776.369995 
	C1104.237549,792.672852 1104.237549,808.604553 1104.237549,824.996460 
	C1107.079468,824.996460 1109.702393,824.996460 1113.269531,824.977478 
M1630.000000,802.500000 
	C1630.000000,793.744568 1630.000000,784.989075 1630.000000,776.395752 
	C1625.925659,776.395752 1622.540161,776.395752 1619.254272,776.395752 
	C1619.254272,792.718811 1619.254272,808.645020 1619.254272,824.695068 
	C1622.898560,824.695068 1626.282593,824.695068 1630.000000,824.695068 
	C1630.000000,817.430054 1630.000000,810.464966 1630.000000,802.500000 
M1303.231567,787.295105 
	C1300.904053,788.645081 1298.576660,789.995056 1296.493408,791.203491 
	C1294.342285,785.124023 1289.689209,789.193054 1286.367188,787.995544 
	C1286.367188,800.758423 1286.367188,812.792969 1286.367188,824.763367 
	C1289.672974,824.763367 1292.609131,824.763367 1296.000610,824.763367 
	C1296.000610,818.431335 1295.937866,812.325378 1296.020142,806.221313 
	C1296.088013,801.192078 1298.914917,798.289978 1303.834351,798.011658 
	C1305.097656,797.940186 1306.368408,798.000854 1307.746826,798.000854 
	C1307.746826,794.044189 1307.746826,790.623840 1307.746826,787.046631 
	C1306.339844,787.046631 1305.185547,787.046631 1303.231567,787.295105 
M1484.499512,788.000000 
	C1482.746582,788.000000 1480.993652,788.000000 1479.395264,788.000000 
	C1479.395264,800.760620 1479.395264,812.813354 1479.395264,824.728149 
	C1483.068359,824.728149 1486.340332,824.728149 1489.682251,824.728149 
	C1489.682251,812.401184 1489.682251,800.348633 1489.682251,788.000000 
	C1488.057861,788.000000 1486.749634,788.000000 1484.499512,788.000000 
M1542.650391,788.003662 
	C1541.784912,788.503113 1540.426270,788.823730 1540.165527,789.542542 
	C1539.736328,790.725098 1540.002930,792.165649 1540.002319,793.497437 
	C1539.998047,803.922546 1540.000000,814.347717 1540.000000,824.601196 
	C1543.742310,824.601196 1546.795898,824.601196 1549.735352,824.601196 
	C1549.735352,812.267212 1549.735352,800.333374 1549.735352,788.000549 
	C1547.515747,788.000549 1545.555420,788.000549 1542.650391,788.003662 
M1489.996460,777.658813 
	C1489.335693,776.778076 1488.744873,775.213257 1488.001831,775.137390 
	C1485.103271,774.841187 1482.156616,775.016541 1479.391113,775.016541 
	C1479.391113,778.744202 1479.391113,781.799744 1479.391113,784.737122 
	C1483.058960,784.737122 1486.333252,784.737122 1489.999512,784.737122 
	C1489.999512,782.519531 1489.999512,780.559448 1489.996460,777.658813 
M1540.021240,783.264465 
	C1543.159790,784.052612 1546.298218,784.840820 1549.635742,785.678955 
	C1549.635742,781.305115 1549.635742,778.247253 1549.635742,775.238037 
	C1546.327148,775.238037 1543.385498,775.238037 1540.003418,775.238037 
	C1540.003418,777.748840 1540.003418,780.041565 1540.021240,783.264465 
z"/>
<path fill="#9B9D9A" opacity="1.000000" stroke="none" 
	d="
M330.000000,803.000000 
	C254.867325,803.000000 180.234650,803.000000 105.000000,803.000000 
	C105.000000,811.605469 105.000000,819.876953 105.000000,828.148499 
	C105.000000,833.148254 105.049835,838.148682 104.990501,843.147705 
	C104.824532,857.129944 111.779587,859.936523 122.154907,860.985779 
	C123.144775,861.085876 124.153481,860.999878 125.153435,860.999878 
	C376.475525,860.999939 627.797607,861.007202 879.119690,860.930237 
	C882.809875,860.929077 886.745239,860.505371 890.132996,859.175476 
	C895.364380,857.121826 898.712158,852.567993 898.860901,847.032349 
	C899.249695,832.570801 898.991882,818.091858 898.991882,803.000000 
	C895.426941,803.000000 892.152832,803.000000 888.878723,803.000000 
	C873.379395,803.000000 857.880066,803.021301 842.380798,802.991943 
	C832.985596,802.974121 826.177124,796.958313 825.040283,787.768250 
	C824.096558,780.139587 832.527222,772.058533 841.710327,772.022461 
	C860.539429,771.948486 879.368958,772.000244 899.000000,772.000244 
	C899.000000,770.118713 899.000000,768.375854 899.000000,766.632935 
	C899.000000,641.805176 898.941528,516.977356 899.115417,392.149841 
	C899.128723,382.571198 891.550842,375.666412 882.929077,375.802216 
	C851.271729,376.300934 819.601685,376.000000 787.936462,376.000000 
	C786.130432,376.000000 784.324402,376.000000 782.564758,376.000000 
	C775.223450,441.327118 730.861023,479.016388 672.399536,479.145874 
	C672.399536,503.194733 672.399536,527.250183 672.399536,552.000000 
	C674.006104,552.000000 675.764160,552.000000 677.522156,552.000000 
	C714.353821,552.000000 751.188721,552.257507 788.014771,551.803650 
	C796.343750,551.701050 804.438232,558.373718 804.115845,568.238464 
	C803.659119,582.214111 804.000000,596.215820 804.000000,610.541138 
	C814.473022,612.700928 824.314453,616.074951 832.734131,622.908630 
	C845.819214,633.528748 853.345581,646.943359 855.073792,663.823425 
	C856.624756,678.972229 853.034119,692.520630 844.049988,704.713196 
	C834.522034,717.643799 821.912903,725.412476 805.975220,728.059937 
	C785.037842,731.537903 767.413818,725.186401 752.899414,710.244141 
	C744.548523,701.647095 739.859619,691.110229 737.854431,679.063354 
	C734.587158,659.434021 740.458069,642.728210 753.360168,628.511230 
	C758.057190,623.335571 764.970642,620.189453 770.784851,615.995300 
	C772.049011,615.083435 773.825562,613.671021 773.856140,612.451294 
	C774.105469,602.492737 773.996460,592.525208 773.996460,582.000000 
	C771.847778,582.000000 770.072266,582.000000 768.296753,582.000000 
	C731.965027,582.000000 695.633362,582.003174 659.301636,581.998169 
	C647.552063,581.996521 641.005920,575.501465 641.002441,563.835022 
	C640.994629,537.502869 641.000000,511.170685 641.000000,484.838531 
	C641.000000,483.050385 641.000000,481.262238 641.000000,479.240692 
	C599.596985,479.240692 558.661682,479.240692 517.362976,479.240692 
	C517.362976,523.623535 517.362976,568.025391 517.362976,612.738953 
	C531.434509,616.014282 542.407837,624.367126 550.538330,636.144653 
	C567.774475,661.112427 563.840515,694.593201 540.880188,714.439026 
	C520.370667,732.166504 492.386444,734.434204 469.405548,719.502380 
	C452.972748,708.825134 443.889557,693.181824 442.855408,672.925659 
	C441.906525,654.339844 448.373535,639.117310 461.262085,626.331543 
	C467.594208,620.049927 475.513763,616.175659 483.787140,612.951416 
	C485.149841,612.420288 486.860779,610.430115 486.865723,609.108521 
	C487.026917,565.956543 486.998779,522.803833 486.998779,479.713318 
	C476.305939,476.930298 471.496857,471.407776 472.001343,462.701263 
	C472.456329,454.848877 478.612946,449.099091 486.514160,448.988159 
	C507.780334,448.689636 529.044983,448.118042 550.311584,448.045044 
	C593.975769,447.895142 637.643066,448.263885 681.304626,447.890900 
	C703.789062,447.698822 721.216003,436.879578 735.092346,419.657349 
	C744.865295,407.527954 749.108093,393.389008 751.028687,378.253723 
	C754.716919,349.186981 749.735840,321.671387 735.444458,296.174530 
	C727.986877,282.869659 718.430359,271.128296 706.719177,260.912476 
	C687.962769,244.551132 666.416687,234.476440 642.240601,230.278839 
	C618.531860,226.162384 595.982239,229.825134 574.896118,242.395248 
	C556.399780,253.421509 543.235962,268.972656 532.864929,287.407440 
	C530.425232,291.744049 527.915710,296.381470 524.314453,299.637543 
	C519.901245,303.627777 512.019714,302.628723 507.447510,298.948944 
	C501.093231,293.834839 500.034882,287.728302 502.863373,280.691742 
	C508.522614,266.612885 516.810730,254.072113 527.395325,243.231842 
	C535.601013,234.827927 544.377319,226.981247 553.091919,218.704575 
	C542.821350,207.206879 529.198975,198.497223 514.181641,192.200684 
	C499.879181,186.203873 484.617065,183.438095 469.118164,184.135712 
	C450.457794,184.975616 432.860687,190.187698 416.696960,199.807953 
	C396.945129,211.563797 382.783142,228.251404 372.986511,248.898804 
	C367.863434,259.696136 359.194336,264.714844 347.158661,265.108643 
	C331.067871,265.635162 315.532928,268.798981 300.809937,275.918579 
	C288.234375,281.999756 276.939209,289.765381 267.656494,300.015594 
	C251.869659,317.447845 241.807648,337.585968 238.788574,361.382111 
	C236.210327,381.703766 239.695221,400.351410 251.153534,417.050720 
	C262.340271,433.354248 277.916565,443.796326 297.748871,446.973846 
	C321.336670,450.753082 345.127014,448.460114 368.824097,448.931671 
	C374.692596,449.048431 379.614960,450.691803 382.298248,455.979248 
	C384.924347,461.153992 385.151520,466.713409 381.999146,471.950470 
	C379.244659,476.526520 375.059570,478.830750 369.774292,478.973022 
	C365.115692,479.098450 360.451111,478.999298 355.000000,478.999298 
	C355.000000,480.893982 355.000000,482.638733 355.000000,484.383484 
	C355.000000,511.215607 355.004425,538.047729 354.997772,564.879883 
	C354.995178,575.465149 348.508514,581.976746 337.787048,581.986877 
	C301.788696,582.021057 265.790283,581.999939 229.791901,582.000000 
	C227.795181,582.000000 225.798477,582.000000 223.401001,582.000000 
	C223.401001,592.198486 223.401001,602.264038 223.401001,612.690979 
	C237.804016,616.536499 249.245178,625.051453 257.312042,637.838745 
	C264.107544,648.610779 267.869843,660.670898 266.704926,673.272461 
	C263.114319,712.115051 231.164627,731.160156 203.020218,728.919983 
	C174.711655,726.666687 154.005554,706.893188 149.004501,680.854919 
	C142.711441,648.089661 165.056671,618.967407 192.000000,612.648315 
	C192.000000,597.931702 191.995712,583.119751 192.001434,568.307739 
	C192.005539,557.704346 197.751923,552.000244 208.413651,552.000183 
	C245.245346,551.999817 282.077026,552.000000 318.908722,552.000000 
	C320.721527,552.000000 322.534332,552.000000 324.669922,552.000000 
	C324.669922,527.658569 324.669922,503.604767 324.669922,478.783142 
	C294.309418,481.111267 266.582642,474.023499 243.421906,453.754333 
	C220.289230,433.509735 208.116913,407.792664 207.781952,376.000061 
	C206.269989,376.000061 204.690002,376.000061 203.110016,376.000061 
	C175.277924,376.000061 147.445847,375.992523 119.613754,376.004547 
	C111.152496,376.008209 105.006882,382.133942 105.004852,390.575409 
	C104.994423,433.906799 105.011597,477.238190 104.988579,520.569580 
	C104.984703,527.876282 102.069519,533.189514 95.125389,536.545349 
	C87.535995,540.212891 77.213852,534.902710 75.145142,527.097412 
	C74.399597,524.284424 74.051216,521.284546 74.046562,518.369141 
	C73.978745,475.871124 73.949135,433.372925 74.021057,390.874939 
	C74.058136,368.966583 91.438927,347.632996 113.283226,345.983398 
	C117.379150,345.674103 121.471474,345.057343 125.566948,345.044067 
	C152.065475,344.958038 178.564438,345.000000 205.063248,345.000000 
	C206.879395,345.000000 208.695526,345.000000 209.225723,345.000000 
	C214.335373,332.596619 218.478180,320.588440 224.103912,309.320679 
	C233.633835,290.233307 247.615738,274.709076 264.806915,261.990143 
	C281.876129,249.361435 300.908936,241.363846 321.604950,237.281372 
	C328.176117,235.985168 334.939362,235.429306 341.641296,235.129852 
	C344.890717,234.984650 346.719238,234.155838 348.031677,231.130142 
	C354.119690,217.094543 363.464966,205.201782 374.140045,194.546555 
	C393.567688,175.155045 417.074432,162.820160 443.901306,157.033386 
	C472.962372,150.764633 501.249329,153.653870 528.570618,165.249893 
	C547.229187,173.169189 563.274963,184.925323 577.141846,199.675964 
	C578.125427,200.722244 578.980774,201.889053 579.863953,202.961243 
	C670.590820,180.339828 768.580688,236.983261 782.345703,345.000000 
	C784.078857,345.000000 785.877441,345.000000 787.675964,345.000000 
	C818.674561,345.000000 849.673157,345.011047 880.671753,344.995789 
	C898.887207,344.986816 913.811707,351.609222 922.954895,367.795990 
	C926.200134,373.541138 928.739563,380.633484 928.752930,387.116699 
	C929.070923,541.109131 929.125427,695.102600 928.842590,849.095154 
	C928.806885,868.531677 913.526306,885.841919 894.126404,889.908997 
	C889.821106,890.811584 885.295898,890.954590 880.871643,890.957214 
	C786.375854,891.013611 691.880127,891.000000 597.384338,891.000000 
	C595.425415,891.000000 593.466492,891.000000 591.256958,891.000000 
	C591.256958,920.370239 591.256958,949.306152 591.256958,979.000000 
	C599.590271,979.000000 608.010559,978.939880 616.429199,979.032593 
	C619.361694,979.064941 622.485291,978.904114 625.180847,979.826965 
	C631.387390,981.951782 636.013245,989.967346 634.960449,995.773376 
	C633.667114,1002.905762 626.959167,1008.561768 619.268005,1008.993042 
	C618.603394,1009.030273 617.934998,1008.999878 617.268372,1008.999878 
	C540.438477,1009.000000 463.608551,1009.004395 386.778656,1008.992981 
	C379.209320,1008.991821 373.218414,1006.430603 369.941864,998.973145 
	C366.124725,990.285400 372.952820,979.136719 382.469727,979.026245 
	C392.440308,978.910461 402.413239,979.000366 412.691010,979.000366 
	C412.691010,949.615662 412.691010,920.562195 412.691010,891.000000 
	C410.616730,891.000000 408.666779,891.000000 406.716858,891.000000 
	C310.887817,891.000000 215.058578,891.098877 119.229851,890.928162 
	C96.188858,890.887146 80.789711,876.629272 75.143196,854.965210 
	C74.161682,851.199402 74.048805,847.128723 74.045082,843.198303 
	C73.982147,776.701355 73.963280,710.204285 74.038399,643.707397 
	C74.050087,633.359924 77.303238,628.660767 84.410042,626.070557 
	C95.230705,622.126770 104.982048,629.981628 104.990051,642.463806 
	C105.016350,683.461975 104.999977,724.460083 105.000000,765.458252 
	C105.000008,767.431458 105.000000,769.404663 105.000000,772.000000 
	C107.415291,772.000000 109.516327,772.000000 111.617355,772.000000 
	C333.940735,772.000000 556.264160,771.999756 778.587524,772.001099 
	C787.697144,772.001160 794.307800,776.298279 796.007812,783.305359 
	C798.490356,793.537659 792.045227,802.271729 781.459106,802.984558 
	C780.131775,803.073914 778.793335,802.999878 777.460083,802.999878 
	C628.473389,803.000000 479.486694,803.000000 330.000000,803.000000 
M515.500000,891.000000 
	C491.417633,891.000000 467.335297,891.000000 443.391327,891.000000 
	C443.391327,920.740662 443.391327,949.788879 443.391327,978.743042 
	C482.377228,978.743042 520.971313,978.743042 559.697144,978.743042 
	C559.697144,949.437866 559.697144,920.390503 559.697144,891.000000 
	C545.097961,891.000000 530.798950,891.000000 515.500000,891.000000 
M208.382385,641.000000 
	C205.464203,641.271545 202.399139,641.059998 199.652267,641.895020 
	C184.772766,646.418335 177.122391,658.242676 179.072968,674.496338 
	C181.480713,694.559509 203.715134,704.590393 220.647949,695.446228 
	C230.932541,689.892273 236.897171,680.661926 236.125626,667.862427 
	C235.457520,656.778687 225.562073,641.192322 208.382385,641.000000 
M767.068909,672.126770 
	C767.380920,673.383972 767.717773,674.635620 768.001099,675.899231 
	C772.398132,695.513367 793.150208,704.157410 809.567993,695.485291 
	C819.753235,690.105347 825.800598,680.950134 825.037292,668.444885 
	C823.908142,649.942627 807.521545,637.114502 788.609436,641.789490 
	C776.416382,644.803589 766.589905,658.228760 767.068909,672.126770 
M494.587311,641.843750 
	C478.496246,645.763367 470.185303,661.895996 473.405029,675.657043 
	C476.750244,689.954529 489.708771,701.453247 508.094818,698.053833 
	C521.129456,695.643860 533.583923,679.059937 530.886169,666.856262 
	C527.126526,649.848755 515.160828,638.224548 494.587311,641.843750 
z"/>
<path fill="#9B9D9A" opacity="1.000000" stroke="none" 
	d="
M1580.724365,434.403717 
	C1582.926147,446.847748 1584.981201,458.904388 1586.899048,470.982849 
	C1587.464844,474.546356 1587.884155,478.166504 1587.958130,481.769196 
	C1588.375122,502.028870 1589.689697,522.338562 1588.753052,542.541077 
	C1587.444214,570.773438 1584.310181,598.918579 1575.037720,625.923157 
	C1567.025146,649.258972 1554.809448,670.023926 1536.045166,686.347595 
	C1519.810547,700.470703 1500.878662,709.590698 1480.067627,715.057861 
	C1466.043579,718.741943 1451.841797,720.912170 1437.383057,720.959900 
	C1397.148682,721.092651 1356.913696,721.005981 1316.338013,721.005981 
	C1316.338013,588.029114 1316.338013,454.331604 1316.338013,320.000000 
	C1318.072510,320.000000 1319.838257,320.000000 1321.603882,320.000000 
	C1359.594482,320.000000 1397.594482,319.480255 1435.572266,320.179321 
	C1461.709351,320.660370 1487.120605,325.660675 1510.674561,337.918884 
	C1534.015503,350.066376 1551.888184,367.607941 1564.447021,390.785492 
	C1571.871216,404.486908 1577.042725,418.913971 1580.724365,434.403717 
M1381.594238,367.000000 
	C1379.495972,367.000000 1377.397705,367.000000 1375.330566,367.000000 
	C1375.330566,469.664032 1375.330566,571.688049 1375.330566,674.000000 
	C1380.800415,674.000000 1385.943726,674.031006 1391.086670,673.994446 
	C1409.248047,673.865234 1427.376709,674.432373 1445.453735,671.150879 
	C1477.420776,665.348022 1497.641846,645.976746 1509.899170,617.087524 
	C1520.558105,591.965515 1523.588501,565.338562 1523.897217,538.382385 
	C1524.104248,520.296326 1523.491455,502.194153 1522.925537,484.109192 
	C1522.684326,476.403290 1522.278320,468.595764 1520.808105,461.056549 
	C1517.384277,443.499237 1513.260132,426.093964 1503.850708,410.485443 
	C1494.462158,394.911743 1482.138184,382.944519 1465.004395,375.816254 
	C1449.059326,369.182617 1432.384766,367.806122 1415.558472,367.088318 
	C1404.583130,366.620087 1393.571533,367.000000 1381.594238,367.000000 
z"/>
<path fill="#9B9D9A" opacity="1.000000" stroke="none" 
	d="
M1239.772217,506.726013 
	C1230.645752,516.979431 1220.816284,526.168091 1208.573364,531.465027 
	C1196.575195,536.656006 1183.974854,541.011597 1171.214233,543.767883 
	C1144.575806,549.522034 1117.373901,546.341187 1090.409546,546.993774 
	C1088.449585,547.041260 1086.487549,547.000000 1084.188843,547.000000 
	C1084.188843,605.345459 1084.188843,663.275330 1084.188843,721.602295 
	C1064.466064,721.602295 1045.079346,721.602295 1025.345093,721.602295 
	C1025.345093,588.036865 1025.345093,454.333069 1025.345093,320.000000 
	C1027.078247,320.000000 1028.844727,320.000000 1030.611206,320.000000 
	C1065.271606,320.000000 1099.934448,319.744476 1134.591431,320.090942 
	C1157.250488,320.317444 1179.655518,323.048035 1201.086792,330.994080 
	C1222.593140,338.967926 1239.268066,352.697571 1250.508423,372.922699 
	C1257.281860,385.110596 1261.046997,398.142212 1261.925293,411.932739 
	C1262.662109,423.501709 1263.558838,435.175018 1262.808716,446.699554 
	C1261.370361,468.800415 1253.906006,488.941528 1239.772217,506.726013 
M1172.963135,377.463165 
	C1158.641235,369.702209 1143.135986,367.093933 1127.074341,367.012451 
	C1114.742920,366.949890 1102.410889,367.000000 1090.079102,367.000000 
	C1088.148682,367.000000 1086.218384,367.000000 1084.376465,367.000000 
	C1084.376465,411.703674 1084.376465,455.754517 1084.376465,499.003784 
	C1101.676270,499.003784 1118.596313,499.168152 1135.511230,498.947937 
	C1147.446777,498.792572 1158.727783,495.594971 1169.223267,489.929626 
	C1183.607178,482.165497 1192.960083,470.738098 1196.167725,454.243561 
	C1198.727905,441.078094 1198.893921,427.942780 1196.847168,414.896942 
	C1194.424561,399.454742 1188.502319,385.717194 1172.963135,377.463165 
z"/>
<path fill="#9B9D9A" opacity="1.000000" stroke="none" 
	d="
M1661.000000,456.000000 
	C1661.000000,410.543427 1661.000000,365.586853 1661.000000,320.315491 
	C1680.699585,320.315491 1700.082275,320.315491 1719.951172,320.315491 
	C1719.951172,438.105743 1719.951172,555.796448 1719.951172,673.820435 
	C1771.357666,673.820435 1822.281616,673.820435 1873.602417,673.820435 
	C1873.602417,689.864624 1873.602417,705.583435 1873.602417,721.652588 
	C1803.043701,721.652588 1732.341187,721.652588 1661.000000,721.652588 
	C1661.000000,633.293091 1661.000000,544.896545 1661.000000,456.000000 
z"/>
<path fill="#9B9D9A" opacity="1.000000" stroke="none" 
	d="
M947.982788,75.997154 
	C956.528870,83.513397 965.177612,90.525711 972.802002,98.515450 
	C984.337097,110.603127 994.060974,124.124550 1002.401672,138.694565 
	C1011.612061,154.783813 1018.841309,171.644531 1023.117493,189.626617 
	C1025.712769,200.540176 1027.597290,211.687729 1028.844849,222.837173 
	C1029.928223,232.518341 1029.761108,242.347900 1029.975342,252.115646 
	C1030.221436,263.334930 1022.118103,268.613831 1013.398254,268.844177 
	C1004.450867,269.080566 997.077576,260.339691 996.895386,251.978424 
	C996.640320,240.272583 996.840820,228.359879 994.688110,216.942627 
	C992.054199,202.972687 988.068054,189.095810 983.100830,175.762009 
	C973.335449,149.548172 956.570679,127.825912 935.773743,109.461487 
	C912.112854,88.568115 884.747681,74.368439 853.410095,69.140343 
	C839.524841,66.823860 825.358582,65.947670 811.278564,65.122452 
	C800.546570,64.493462 793.997375,58.559135 794.000000,47.957546 
	C794.002380,38.364342 800.916870,32.288078 811.341553,31.946421 
	C839.223083,31.032635 866.257935,35.345280 892.350647,45.055084 
	C912.321411,52.486732 930.875000,62.642982 947.982788,75.997154 
z"/>
<path fill="#9B9D9A" opacity="1.000000" stroke="none" 
	d="
M844.509888,133.235336 
	C831.673035,132.038574 819.195068,131.299240 806.798279,129.860291 
	C800.931946,129.179352 793.073486,123.015900 793.929260,112.268791 
	C794.539185,104.608513 800.957947,97.296585 808.542908,97.043015 
	C839.847290,95.996506 869.507385,101.909729 895.885681,119.573151 
	C905.773010,126.193871 915.646851,133.313446 923.912842,141.781174 
	C943.696655,162.047714 956.392029,186.358734 962.132935,214.327713 
	C964.816467,227.401459 965.142517,240.492081 964.980713,253.685791 
	C964.904663,259.885498 961.023743,265.265686 954.985168,267.482391 
	C948.940491,269.701324 943.322083,269.363953 938.185913,264.779022 
	C933.657104,260.736176 931.815063,255.960419 931.946533,249.939438 
	C932.527832,223.320297 925.897583,198.716476 909.958252,177.170120 
	C894.602112,156.412186 874.632751,141.913147 849.504944,134.971756 
	C847.945496,134.540955 846.435181,133.931885 844.509888,133.235336 
z"/>
<path fill="#9B9D9A" opacity="1.000000" stroke="none" 
	d="
M860.011963,219.083313 
	C852.000671,207.526276 842.125854,198.986038 828.137756,196.664825 
	C822.161682,195.673141 815.991028,194.765121 810.005493,195.187943 
	C802.017761,195.752228 793.457947,186.466522 793.846802,179.466248 
	C794.406738,169.385178 800.518494,162.324478 809.846863,161.958633 
	C826.008118,161.324860 841.684387,163.443817 856.057007,171.095749 
	C879.203674,183.418991 893.474915,202.883560 898.742798,228.409546 
	C900.490845,236.879776 899.993408,245.887878 899.890564,254.642639 
	C899.804749,261.948334 890.872070,269.604218 883.277039,268.897430 
	C874.002441,268.034271 868.070007,263.025208 867.012878,252.631912 
	C866.283081,245.457077 866.099060,238.193695 864.836548,231.118820 
	C864.114868,227.074921 861.721436,223.329361 860.011963,219.083313 
z"/>
<path fill="#9B9D9A" opacity="1.000000" stroke="none" 
	d="
M834.999939,254.726898 
	C833.922729,264.198669 829.076660,270.569855 821.024292,274.441071 
	C811.944885,278.806030 803.193909,277.687439 795.262390,271.698242 
	C782.388428,261.976959 782.624146,243.226349 794.672974,232.124420 
	C802.317383,225.080811 818.383911,225.753204 826.421021,232.808319 
	C833.055359,238.632172 835.904785,245.613571 834.999939,254.726898 
z"/>
<path fill="#9B9D9A" opacity="1.000000" stroke="none" 
	d="
M91.628189,610.996216 
	C81.138275,610.995239 75.339844,606.934326 74.393517,596.119446 
	C73.420189,584.996094 74.278656,573.637451 75.202141,562.453308 
	C75.699753,556.426819 81.843750,552.332642 87.654388,551.951660 
	C98.731247,551.225464 103.129280,556.575378 103.582138,561.781372 
	C104.634018,573.873657 104.448708,586.106323 104.175484,598.268921 
	C104.008461,605.703979 98.643448,609.167053 91.628189,610.996216 
z"/>
<path fill="#9B9D9A" opacity="1.000000" stroke="none" 
	d="
M432.989014,479.000000 
	C424.589539,478.673248 416.541229,479.169952 408.825470,477.797516 
	C400.434296,476.304901 397.343719,467.714905 398.239655,462.760376 
	C400.013550,452.951050 405.145996,448.775665 413.100769,448.947021 
	C423.244232,449.165527 433.396027,448.983612 443.544159,449.005157 
	C451.782349,449.022675 457.863342,455.286255 458.013519,463.717773 
	C458.172211,472.626740 451.646423,478.127747 443.961090,478.937683 
	C440.505829,479.301788 436.980316,478.999756 432.989014,479.000000 
z"/>
<path fill="#9B9D9A" opacity="1.000000" stroke="none" 
	d="
M1430.000000,816.934082 
	C1430.000000,803.148071 1430.000000,789.852051 1430.000000,776.029480 
	C1439.821899,776.029480 1449.323975,775.390686 1458.682983,776.271606 
	C1464.200562,776.791077 1468.737671,781.252014 1470.576904,786.439331 
	C1474.505859,797.520203 1474.770874,808.812988 1466.907959,818.497192 
	C1464.480103,821.487671 1460.230957,824.314575 1456.548340,824.706787 
	C1448.002686,825.616882 1439.293945,824.996521 1430.000000,824.996521 
	C1430.000000,822.285400 1430.000000,819.854736 1430.000000,816.934082 
M1453.613281,815.817688 
	C1460.999756,811.440186 1463.744141,799.914246 1459.694214,790.277893 
	C1457.647827,785.408264 1450.321167,783.587830 1441.391968,785.665039 
	C1441.391968,795.755554 1441.391968,805.810730 1441.391968,815.971375 
	C1445.444702,815.971375 1449.106079,815.971375 1453.613281,815.817688 
z"/>
<path fill="#9B9D9A" opacity="1.000000" stroke="none" 
	d="
M1498.962402,794.176880 
	C1506.106934,785.616882 1513.282104,784.842590 1521.647949,791.584839 
	C1521.884521,790.428101 1522.093140,789.407349 1522.331665,788.240967 
	C1525.397949,788.240967 1528.474976,788.240967 1531.982422,788.240967 
	C1531.982422,801.410767 1532.389526,814.363464 1531.797119,827.270264 
	C1531.532715,833.029602 1528.146484,837.749451 1521.762329,839.100891 
	C1515.097900,840.511475 1508.502319,841.185852 1502.171875,837.648132 
	C1498.451172,835.568848 1497.032715,833.164246 1497.194946,828.065552 
	C1501.448364,828.632446 1505.781738,826.379456 1509.848999,830.625977 
	C1511.254761,832.093689 1515.926636,831.674683 1518.345093,830.520935 
	C1520.137817,829.665710 1520.699585,826.229919 1521.235840,823.432007 
	C1515.292847,826.273499 1510.043213,826.958496 1504.276733,823.910645 
	C1496.368164,819.730469 1495.092041,808.649109 1496.369507,801.305420 
	C1496.774170,798.979370 1498.020386,796.799744 1498.962402,794.176880 
M1519.052002,799.582520 
	C1516.569946,798.781799 1513.819824,796.940735 1511.685913,797.490723 
	C1509.784302,797.980835 1507.735718,800.934387 1507.254761,803.129944 
	C1506.661133,805.840149 1507.692749,808.885803 1507.892944,811.795410 
	C1508.167847,815.788452 1511.547974,816.690125 1514.155518,816.680969 
	C1517.466431,816.669312 1520.651611,814.493408 1520.835571,810.753723 
	C1521.007935,807.249634 1520.079346,803.691528 1519.052002,799.582520 
z"/>
<path fill="#9B9D9A" opacity="1.000000" stroke="none" 
	d="
M1323.000000,817.912842 
	C1323.000000,820.377930 1323.000000,822.354309 1323.000000,824.664246 
	C1319.344849,824.664246 1315.960938,824.664246 1312.283813,824.664246 
	C1312.283813,812.582153 1312.283813,800.532532 1312.283813,788.240723 
	C1315.382080,788.240723 1318.323242,788.240723 1321.655640,788.240723 
	C1321.856445,789.216858 1322.087769,790.341248 1322.346436,791.598450 
	C1329.977051,785.423218 1335.420776,785.532959 1342.491821,791.797424 
	C1347.001953,787.589905 1351.944336,785.500549 1358.016846,788.492493 
	C1363.646240,791.266052 1365.254883,795.947266 1365.059326,801.890259 
	C1364.813599,809.355225 1365.000000,816.834412 1365.000000,824.652771 
	C1361.700195,824.652771 1358.648315,824.652771 1355.000000,824.652771 
	C1355.000000,819.568420 1355.105469,814.461853 1354.956055,809.362793 
	C1354.880249,806.774170 1354.184814,804.206787 1354.057983,801.615784 
	C1353.898071,798.346680 1352.422974,795.881531 1349.170532,796.196716 
	C1345.706909,796.532288 1343.969482,799.220520 1343.991455,802.847900 
	C1344.027832,808.840576 1344.000122,814.833618 1343.999634,820.826538 
	C1343.999634,821.976746 1343.999756,823.127014 1343.999756,824.638367 
	C1340.394409,824.638367 1337.010254,824.638367 1332.999878,824.638367 
	C1332.999878,817.433716 1332.840942,810.165588 1333.063721,802.909180 
	C1333.183472,799.007263 1331.774780,796.076965 1327.930420,796.301575 
	C1324.674561,796.491821 1322.651611,798.992188 1322.921997,802.946533 
	C1323.250366,807.751770 1323.000000,812.596436 1323.000000,817.912842 
z"/>
<path fill="#9B9D9A" opacity="1.000000" stroke="none" 
	d="
M143.801132,817.110229 
	C150.705582,817.020264 157.187637,816.989136 163.669540,817.005920 
	C170.216766,817.022827 176.717331,822.134277 177.965439,828.194946 
	C179.545410,835.867065 176.262283,842.714600 169.183365,845.291321 
	C160.422485,848.480225 151.258728,848.050598 142.563095,845.583191 
	C136.459930,843.851379 133.113144,838.215332 133.195160,831.931763 
	C133.265625,826.533630 135.267059,821.342224 140.822388,818.639771 
	C141.701508,818.212097 142.527893,817.676086 143.801132,817.110229 
z"/>
<path fill="#9B9D9A" opacity="1.000000" stroke="none" 
	d="
M1081.714844,807.999939 
	C1077.759033,808.000000 1074.265625,808.000000 1070.242065,808.000000 
	C1070.242065,813.541565 1070.242065,818.945068 1070.242065,824.668457 
	C1066.333862,824.668457 1062.947266,824.668457 1059.276245,824.668457 
	C1059.276245,808.679199 1059.276245,792.739990 1059.276245,776.340393 
	C1068.694336,776.340393 1078.352051,775.492432 1087.775146,776.614197 
	C1095.044067,777.479553 1098.567993,785.307373 1097.906250,792.978516 
	C1097.090088,802.440002 1090.588989,807.721985 1081.714844,807.999939 
M1070.000488,794.346375 
	C1069.597534,797.055237 1070.516724,798.372437 1073.488159,798.040710 
	C1075.458496,797.820740 1077.475830,797.932190 1079.467407,798.013550 
	C1083.642822,798.184082 1085.805664,796.483215 1086.066772,792.065613 
	C1086.348022,787.308533 1083.747314,785.458984 1079.703247,785.064209 
	C1076.624512,784.763733 1073.492676,785.004578 1070.000000,785.004578 
	C1070.000000,788.146301 1070.000000,790.772034 1070.000488,794.346375 
z"/>
<path fill="#9B9D9A" opacity="1.000000" stroke="none" 
	d="
M1212.020508,792.151489 
	C1212.741943,794.856995 1213.803955,797.150146 1213.914062,799.488159 
	C1214.179565,805.126953 1213.874390,810.790833 1214.055542,816.436340 
	C1214.140259,819.077148 1214.817505,821.699036 1215.311523,824.878357 
	C1211.662842,824.537537 1207.361328,826.227417 1203.632324,823.881958 
	C1199.495361,824.551392 1195.042236,825.622253 1190.539551,825.905884 
	C1185.659180,826.213257 1182.250854,823.244507 1181.198730,818.355164 
	C1180.150391,813.482971 1181.648438,807.058289 1185.948730,805.588196 
	C1190.061279,804.182251 1194.352295,803.303650 1198.489502,801.960938 
	C1200.093994,801.440186 1201.491699,800.282104 1202.983521,799.414368 
	C1202.462524,798.548340 1202.010376,796.998718 1201.408081,796.937927 
	C1199.132202,796.708191 1195.366699,796.114258 1194.741943,797.176208 
	C1191.450928,802.771240 1186.725830,800.820374 1182.181885,800.721313 
	C1183.364380,788.599365 1191.911865,786.313354 1200.942993,787.252258 
	C1204.720093,787.644836 1208.273193,790.191956 1212.020508,792.151489 
M1197.568115,809.999451 
	C1194.082642,810.264709 1191.114990,811.454956 1192.221558,815.580139 
	C1192.578369,816.910522 1195.326660,818.650330 1196.740601,818.455872 
	C1201.660156,817.779419 1203.312256,814.756531 1202.470581,808.930115 
	C1201.084106,809.290466 1199.742432,809.639099 1197.568115,809.999451 
z"/>
<path fill="#9B9D9A" opacity="1.000000" stroke="none" 
	d="
M1403.000000,805.051147 
	C1403.000000,808.866150 1402.818970,812.204224 1403.053223,815.512939 
	C1403.267212,818.535217 1403.930908,821.525574 1404.499268,825.194031 
	C1400.445435,824.897156 1396.223877,824.588013 1390.608032,824.176758 
	C1387.085938,827.175110 1381.319336,826.961365 1375.833130,825.085571 
	C1371.070190,823.457092 1369.913086,818.807190 1370.077148,814.233582 
	C1370.251831,809.363953 1373.144897,805.940247 1377.574097,804.284058 
	C1380.724731,803.106079 1384.212769,802.862366 1387.485962,801.967163 
	C1389.253540,801.483704 1390.886719,800.508057 1392.580444,799.754456 
	C1391.911499,798.796631 1391.357056,797.146179 1390.551880,797.013123 
	C1388.299438,796.640930 1384.320801,796.124390 1383.890625,797.028687 
	C1381.024902,803.053528 1375.974609,800.432312 1371.750488,801.047668 
	C1371.394043,794.937317 1373.935181,790.363159 1379.271851,788.436646 
	C1386.274292,785.908813 1393.743042,785.956299 1399.852295,790.650940 
	C1404.193237,793.986816 1402.979248,799.661804 1403.000000,805.051147 
M1392.996582,810.565186 
	C1392.812500,809.831787 1392.628418,809.098389 1392.444458,808.364929 
	C1389.196655,809.267212 1385.763794,809.795776 1382.796631,811.264893 
	C1381.687256,811.814270 1380.762207,815.065430 1381.382935,816.162842 
	C1382.085938,817.405823 1385.329956,818.671448 1386.221191,818.071899 
	C1388.812012,816.329163 1390.778931,813.658875 1392.996582,810.565186 
z"/>
<path fill="#9B9D9A" opacity="1.000000" stroke="none" 
	d="
M1588.488525,800.964844 
	C1585.574097,800.990356 1583.097412,800.990356 1580.671265,800.990356 
	C1579.480469,794.514893 1583.406982,789.225708 1589.327148,787.907959 
	C1595.150269,786.611755 1600.585449,786.835815 1605.962280,789.429077 
	C1609.435791,791.104431 1611.159668,793.684204 1611.027588,797.608154 
	C1610.899048,801.427185 1610.867188,805.259644 1611.032227,809.075867 
	C1611.256348,814.255920 1611.708252,819.426086 1612.132812,825.629272 
	C1608.782349,824.874817 1605.075806,823.832092 1601.297363,823.308411 
	C1600.066650,823.137817 1598.629150,824.280640 1597.319214,824.893188 
	C1591.975464,827.391724 1583.941040,826.274231 1580.930786,822.717651 
	C1577.552856,818.726685 1578.287109,814.211853 1579.652344,809.958862 
	C1581.364136,804.625671 1586.435059,803.926575 1591.104492,803.020569 
	C1593.336670,802.587463 1595.666260,802.528442 1597.819946,801.869202 
	C1599.007080,801.505798 1599.920898,800.250122 1600.958008,799.396606 
	C1599.721924,798.268127 1598.649414,796.497192 1597.218872,796.133118 
	C1593.153931,795.098511 1590.617798,797.467102 1588.488525,800.964844 
M1594.737549,818.071289 
	C1600.243896,816.414368 1601.530762,814.342834 1600.255249,808.998657 
	C1597.729736,809.385132 1594.896729,809.211731 1592.749634,810.341675 
	C1591.066650,811.227234 1590.232300,813.725952 1589.020874,815.507935 
	C1590.701050,816.483948 1592.381226,817.459900 1594.737549,818.071289 
z"/>
<path fill="#9B9D9A" opacity="1.000000" stroke="none" 
	d="
M1775.969482,817.313477 
	C1775.289673,809.085754 1777.375122,804.704468 1788.080444,803.006104 
	C1790.490356,802.623779 1792.954346,802.428528 1795.284546,801.765137 
	C1796.315796,801.471558 1797.944336,799.947510 1797.790161,799.466797 
	C1797.387817,798.212280 1796.186646,796.344177 1795.239746,796.305786 
	C1792.901611,796.210938 1789.056030,796.279541 1788.422729,797.565735 
	C1785.710693,803.073730 1781.292114,800.320374 1777.568359,800.972900 
	C1776.548340,794.073730 1780.413940,789.366272 1786.943604,787.884338 
	C1792.829224,786.548462 1798.457031,786.513062 1803.327515,790.000732 
	C1805.499634,791.555969 1807.416138,794.641479 1807.796753,797.271606 
	C1808.504028,802.158447 1807.838013,807.227600 1808.050903,812.207703 
	C1808.223267,816.237854 1808.846436,820.248779 1809.404785,825.551697 
	C1805.931763,824.822388 1802.302368,823.871338 1798.611816,823.390137 
	C1797.363037,823.227234 1795.971924,824.622864 1794.624146,824.668640 
	C1789.857422,824.830505 1784.939941,825.372131 1780.377441,824.388184 
	C1778.522095,823.988037 1777.430908,820.044739 1775.969482,817.313477 
M1795.361450,816.895935 
	C1796.415894,814.488281 1797.470337,812.080627 1798.930664,808.746033 
	C1794.763306,809.378540 1791.873291,809.142883 1789.811035,810.336914 
	C1788.062012,811.349670 1786.058960,814.200623 1786.321777,815.906433 
	C1786.777222,818.862000 1789.620972,819.324829 1792.391724,818.014526 
	C1793.113037,817.673340 1793.858887,817.383850 1795.361450,816.895935 
z"/>
<path fill="#9B9D9A" opacity="1.000000" stroke="none" 
	d="
M1139.722900,787.005249 
	C1141.739624,787.354004 1143.336426,787.636047 1144.896362,788.055176 
	C1150.685303,789.610657 1152.783936,792.651428 1153.046509,798.667786 
	C1153.424561,807.328186 1151.471191,816.148438 1155.534302,825.905212 
	C1150.897583,824.911743 1147.305786,823.961731 1143.652466,823.459534 
	C1142.416504,823.289673 1141.051636,824.508240 1139.699219,824.650146 
	C1135.527100,825.087830 1131.223267,826.035278 1127.176514,825.423462 
	C1122.806030,824.762817 1120.184082,819.790833 1120.488403,815.099731 
	C1120.880981,809.048523 1123.588135,805.139893 1128.432007,804.055786 
	C1132.226807,803.206482 1136.123291,802.795654 1139.893188,801.861389 
	C1141.051514,801.574280 1141.941040,800.202515 1142.953613,799.327393 
	C1141.861938,798.229431 1140.893066,796.376526 1139.655518,796.175049 
	C1135.911255,795.565491 1132.361572,796.122437 1131.507690,800.816650 
	C1128.368286,800.816650 1125.412476,800.816650 1122.469238,800.816650 
	C1121.902588,790.898438 1127.100342,788.192383 1136.295898,787.021851 
	C1137.277588,786.896851 1138.288696,787.002686 1139.722900,787.005249 
M1139.587769,817.072388 
	C1140.996338,814.749756 1142.405029,812.427185 1143.813721,810.104553 
	C1143.372070,809.734619 1142.930420,809.364685 1142.488770,808.994751 
	C1139.829834,809.399292 1136.812622,809.171509 1134.626343,810.410278 
	C1132.908081,811.383911 1132.215942,814.168274 1131.067993,816.148315 
	C1132.639038,816.978210 1134.137329,818.076782 1135.810425,818.529602 
	C1136.706055,818.772034 1137.902832,817.902161 1139.587769,817.072388 
z"/>
<path fill="#9B9D9A" opacity="1.000000" stroke="none" 
	d="
M1280.000000,807.898193 
	C1280.236694,818.396851 1272.680176,826.132690 1262.105591,826.198853 
	C1254.249634,826.247925 1247.775635,824.096313 1244.373169,817.325562 
	C1240.252563,809.125244 1240.406738,800.144775 1246.784058,792.996521 
	C1252.503174,786.586182 1260.492798,786.054626 1268.491455,788.253235 
	C1274.611450,789.935364 1279.660278,797.082031 1279.990967,803.949036 
	C1280.046997,805.112183 1279.999512,806.280396 1280.000000,807.898193 
M1267.686646,800.210754 
	C1265.037842,798.842590 1262.031616,795.972107 1259.833008,796.495361 
	C1257.220459,797.117126 1254.435669,800.309204 1253.342896,803.035767 
	C1252.374268,805.452515 1253.476807,808.779541 1253.922974,811.664734 
	C1254.626709,816.215149 1257.768066,817.117859 1261.884644,817.076477 
	C1266.090332,817.034241 1268.104492,814.226929 1268.687866,811.128845 
	C1269.296265,807.897034 1268.290527,804.361389 1267.686646,800.210754 
z"/>
<path fill="#9B9D9A" opacity="1.000000" stroke="none" 
	d="
M1697.002686,812.732056 
	C1693.830688,800.864990 1699.452881,789.335205 1712.891235,787.179016 
	C1721.975098,785.721619 1734.118408,791.967041 1734.060669,804.318481 
	C1734.026001,811.733337 1733.733887,818.555908 1726.477661,823.250732 
	C1717.883545,828.811218 1700.011963,827.092834 1697.002686,812.732056 
M1722.671387,801.185425 
	C1719.042969,795.327942 1712.189331,794.533081 1708.823364,799.813477 
	C1706.069214,804.133850 1706.466919,808.774719 1708.732666,813.303711 
	C1711.072266,817.980591 1717.955322,818.493103 1721.311523,814.400146 
	C1724.509033,810.500488 1723.112061,806.184265 1722.671387,801.185425 
z"/>
<path fill="#9B9D9A" opacity="1.000000" stroke="none" 
	d="
M1684.932617,825.000000 
	C1675.494873,825.000000 1666.546997,825.000000 1657.301147,825.000000 
	C1657.301147,808.628296 1657.301147,792.601501 1657.301147,776.286499 
	C1661.084839,776.286499 1664.798706,776.286499 1668.835449,776.286499 
	C1668.835449,789.371277 1668.835449,802.289001 1668.835449,815.719421 
	C1676.843628,815.719421 1684.561890,815.719421 1692.636230,815.719421 
	C1692.636230,818.933838 1692.636230,821.649292 1692.636230,825.000000 
	C1690.286255,825.000000 1687.854370,825.000000 1684.932617,825.000000 
z"/>
<path fill="#9B9D9A" opacity="1.000000" stroke="none" 
	d="
M1749.135132,802.726807 
	C1749.104248,805.955933 1748.409058,809.103882 1749.449585,811.497314 
	C1750.517334,813.953552 1753.001587,816.676086 1755.405762,817.346863 
	C1756.908325,817.766113 1759.442871,814.647339 1761.438232,813.022644 
	C1761.907593,812.640503 1762.069458,811.880798 1762.408203,811.226257 
	C1765.463257,811.226257 1768.575439,811.226257 1771.667236,811.226257 
	C1772.215210,818.205261 1766.548462,825.215393 1759.999023,825.999939 
	C1741.399170,828.228149 1736.195312,816.604126 1738.750000,801.406250 
	C1741.041992,787.771484 1755.608276,783.775635 1765.990845,790.033142 
	C1770.246582,792.598083 1772.214966,796.506287 1771.916138,801.801941 
	C1767.124878,801.874695 1762.732056,803.333435 1759.171021,798.027039 
	C1756.535767,794.100037 1752.561646,796.034363 1749.135132,802.726807 
z"/>
<path fill="#9B9D9A" opacity="1.000000" stroke="none" 
	d="
M1218.402100,788.494751 
	C1219.982910,788.027588 1221.277588,787.907104 1222.511841,787.792297 
	C1224.085938,776.265320 1226.590210,774.316345 1238.679077,775.294128 
	C1238.679077,777.989197 1238.679077,780.720886 1238.679077,782.975342 
	C1236.551392,784.172791 1234.607056,785.267151 1232.662720,786.361511 
	C1232.839478,786.818542 1233.016113,787.275574 1233.192871,787.732605 
	C1235.263428,787.881348 1237.333984,788.030029 1239.699463,788.199890 
	C1239.699463,790.649963 1239.699463,793.049866 1239.699463,795.815674 
	C1237.597656,795.930847 1235.516235,796.044922 1233.146851,796.174805 
	C1233.146851,805.697021 1233.146851,814.957703 1233.146851,824.608215 
	C1229.787109,824.608215 1226.737671,824.608215 1223.181152,824.608215 
	C1223.181152,815.390686 1223.181152,806.001526 1223.181152,796.293091 
	C1221.328979,796.094299 1219.927490,795.943848 1218.115967,795.749390 
	C1218.115967,793.389771 1218.115967,791.115601 1218.402100,788.494751 
z"/>
<path fill="#9B9D9A" opacity="1.000000" stroke="none" 
	d="
M1575.915283,824.805603 
	C1572.290771,825.390015 1568.682007,825.925110 1565.176880,825.533264 
	C1561.515015,825.124023 1559.690674,822.891663 1559.899048,818.700134 
	C1560.261963,811.405518 1560.000000,804.079895 1560.000000,796.427917 
	C1558.328125,796.154968 1556.805420,795.906433 1555.166504,795.638855 
	C1555.166504,793.133972 1555.166504,790.858459 1555.166504,788.245789 
	C1556.701172,788.090210 1558.110474,787.947327 1559.823486,787.773682 
	C1559.823486,784.683716 1559.823486,781.733459 1559.823486,778.390137 
	C1563.188110,778.390137 1566.242676,778.390137 1569.829102,778.390137 
	C1569.829102,781.289612 1569.829102,784.358459 1569.829102,787.775940 
	C1572.047607,787.927063 1573.786987,788.045532 1575.753296,788.179443 
	C1575.753296,790.677124 1575.753296,792.954346 1575.753296,795.674500 
	C1574.138550,795.842529 1572.393433,796.024170 1570.009521,796.272278 
	C1570.009521,802.450012 1569.688354,808.749512 1570.242676,814.971008 
	C1570.375977,816.467163 1573.414062,817.704529 1575.976685,819.746521 
	C1575.976685,820.408325 1575.976685,822.378601 1575.915283,824.805603 
z"/>
<path fill="#9B9D9A" opacity="1.000000" stroke="none" 
	d="
M1172.003662,813.496338 
	C1173.532593,815.659424 1175.058960,817.373108 1176.585327,819.086853 
	C1176.980957,818.807678 1177.376709,818.528564 1177.772461,818.249390 
	C1177.772461,820.669922 1177.772461,823.090393 1177.772461,825.999268 
	C1175.473267,825.999268 1173.355347,826.052795 1171.240967,825.989502 
	C1163.872925,825.769165 1162.003662,823.841858 1162.000610,816.539856 
	C1161.997803,809.908936 1162.000000,803.277954 1162.000000,796.312988 
	C1160.354248,796.109070 1158.953735,795.935547 1157.281494,795.728333 
	C1157.281494,793.418396 1157.281494,791.147583 1157.281494,788.481934 
	C1158.564575,788.227844 1160.082031,787.927307 1161.902588,787.566772 
	C1161.902588,784.588562 1161.902588,781.643188 1161.902588,778.349609 
	C1165.269409,778.349609 1168.322510,778.349609 1171.895630,778.349609 
	C1171.895630,781.368286 1171.895630,784.433167 1171.895630,787.788513 
	C1173.986450,787.922729 1175.596802,788.026184 1177.603638,788.155029 
	C1177.603638,790.511169 1177.603638,792.896301 1177.603638,795.646606 
	C1176.083130,795.827332 1174.341919,796.034241 1172.000977,796.312500 
	C1172.000977,801.839478 1172.000977,807.443176 1172.003662,813.496338 
z"/>
<path fill="#9B9D9A" opacity="1.000000" stroke="none" 
	d="
M1816.000000,819.857300 
	C1816.000000,805.087769 1816.000000,790.804321 1816.000000,776.262451 
	C1819.679810,776.262451 1822.953857,776.262451 1826.614990,776.262451 
	C1826.614990,792.199158 1826.614990,808.250000 1826.614990,824.651794 
	C1823.367310,824.651794 1819.982422,824.651794 1816.256226,824.651794 
	C1816.171753,823.231628 1816.085815,821.787476 1816.000000,819.857300 
z"/>
<path fill="#9B9D9A" opacity="1.000000" stroke="none" 
	d="
M1112.797363,824.986938 
	C1109.702393,824.996460 1107.079468,824.996460 1104.237549,824.996460 
	C1104.237549,808.604553 1104.237549,792.672852 1104.237549,776.369995 
	C1107.591064,776.369995 1110.976807,776.369995 1115.000000,776.369995 
	C1115.000000,781.893311 1115.000122,787.493408 1115.000000,793.093506 
	C1114.999878,802.421875 1115.067139,811.751343 1114.922852,821.077515 
	C1114.902588,822.385742 1113.846313,823.677917 1112.797363,824.986938 
z"/>
<path fill="#9B9D9A" opacity="1.000000" stroke="none" 
	d="
M1630.000000,802.999939 
	C1630.000000,810.464966 1630.000000,817.430054 1630.000000,824.695068 
	C1626.282593,824.695068 1622.898560,824.695068 1619.254272,824.695068 
	C1619.254272,808.645020 1619.254272,792.718811 1619.254272,776.395752 
	C1622.540161,776.395752 1625.925659,776.395752 1630.000000,776.395752 
	C1630.000000,784.989075 1630.000000,793.744568 1630.000000,802.999939 
z"/>
<path fill="#9B9D9A" opacity="1.000000" stroke="none" 
	d="
M1303.631348,787.170898 
	C1305.185547,787.046631 1306.339844,787.046631 1307.746826,787.046631 
	C1307.746826,790.623840 1307.746826,794.044189 1307.746826,798.000854 
	C1306.368408,798.000854 1305.097656,797.940186 1303.834351,798.011658 
	C1298.914917,798.289978 1296.088013,801.192078 1296.020142,806.221313 
	C1295.937866,812.325378 1296.000610,818.431335 1296.000610,824.763367 
	C1292.609131,824.763367 1289.672974,824.763367 1286.367188,824.763367 
	C1286.367188,812.792969 1286.367188,800.758423 1286.367188,787.995544 
	C1289.689209,789.193054 1294.342285,785.124023 1296.493408,791.203491 
	C1298.576660,789.995056 1300.904053,788.645081 1303.631348,787.170898 
z"/>
<path fill="#9B9D9A" opacity="1.000000" stroke="none" 
	d="
M1484.970459,788.000000 
	C1486.749634,788.000000 1488.057861,788.000000 1489.682251,788.000000 
	C1489.682251,800.348633 1489.682251,812.401184 1489.682251,824.728149 
	C1486.340332,824.728149 1483.068359,824.728149 1479.395264,824.728149 
	C1479.395264,812.813354 1479.395264,800.760620 1479.395264,788.000000 
	C1480.993652,788.000000 1482.746582,788.000000 1484.970459,788.000000 
z"/>
<path fill="#9B9D9A" opacity="1.000000" stroke="none" 
	d="
M1543.122803,788.002075 
	C1545.555420,788.000549 1547.515747,788.000549 1549.735352,788.000549 
	C1549.735352,800.333374 1549.735352,812.267212 1549.735352,824.601196 
	C1546.795898,824.601196 1543.742310,824.601196 1540.000000,824.601196 
	C1540.000000,814.347717 1539.998047,803.922546 1540.002319,793.497437 
	C1540.002930,792.165649 1539.736328,790.725098 1540.165527,789.542542 
	C1540.426270,788.823730 1541.784912,788.503113 1543.122803,788.002075 
z"/>
<path fill="#9B9D9A" opacity="1.000000" stroke="none" 
	d="
M1489.998047,778.129089 
	C1489.999512,780.559448 1489.999512,782.519531 1489.999512,784.737122 
	C1486.333252,784.737122 1483.058960,784.737122 1479.391113,784.737122 
	C1479.391113,781.799744 1479.391113,778.744202 1479.391113,775.016541 
	C1482.156616,775.016541 1485.103271,774.841187 1488.001831,775.137390 
	C1488.744873,775.213257 1489.335693,776.778076 1489.998047,778.129089 
z"/>
<path fill="#9B9D9A" opacity="1.000000" stroke="none" 
	d="
M1540.012329,782.799377 
	C1540.003418,780.041565 1540.003418,777.748840 1540.003418,775.238037 
	C1543.385498,775.238037 1546.327148,775.238037 1549.635742,775.238037 
	C1549.635742,778.247253 1549.635742,781.305115 1549.635742,785.678955 
	C1546.298218,784.840820 1543.159790,784.052612 1540.012329,782.799377 
z"/>
<path fill="#000000" opacity="1.000000" stroke="none" 
	d="
M516.000000,891.000000 
	C530.798950,891.000000 545.097961,891.000000 559.697144,891.000000 
	C559.697144,920.390503 559.697144,949.437866 559.697144,978.743042 
	C520.971313,978.743042 482.377228,978.743042 443.391327,978.743042 
	C443.391327,949.788879 443.391327,920.740662 443.391327,891.000000 
	C467.335297,891.000000 491.417633,891.000000 516.000000,891.000000 
z"/>
<path fill="#000000" opacity="1.000000" stroke="none" 
	d="
M208.842941,641.000000 
	C225.562073,641.192322 235.457520,656.778687 236.125626,667.862427 
	C236.897171,680.661926 230.932541,689.892273 220.647949,695.446228 
	C203.715134,704.590393 181.480713,694.559509 179.072968,674.496338 
	C177.122391,658.242676 184.772766,646.418335 199.652267,641.895020 
	C202.399139,641.059998 205.464203,641.271545 208.842941,641.000000 
z"/>
<path fill="#000000" opacity="1.000000" stroke="none" 
	d="
M767.039978,671.689575 
	C766.589905,658.228760 776.416382,644.803589 788.609436,641.789490 
	C807.521545,637.114502 823.908142,649.942627 825.037292,668.444885 
	C825.800598,680.950134 819.753235,690.105347 809.567993,695.485291 
	C793.150208,704.157410 772.398132,695.513367 768.001099,675.899231 
	C767.717773,674.635620 767.380920,673.383972 767.039978,671.689575 
z"/>
<path fill="#000000" opacity="1.000000" stroke="none" 
	d="
M494.918518,641.564026 
	C515.160828,638.224548 527.126526,649.848755 530.886169,666.856262 
	C533.583923,679.059937 521.129456,695.643860 508.094818,698.053833 
	C489.708771,701.453247 476.750244,689.954529 473.405029,675.657043 
	C470.185303,661.895996 478.496246,645.763367 494.918518,641.564026 
z"/>
<path fill="#000000" opacity="1.000000" stroke="none" 
	d="
M1382.085205,367.000000 
	C1393.571533,367.000000 1404.583130,366.620087 1415.558472,367.088318 
	C1432.384766,367.806122 1449.059326,369.182617 1465.004395,375.816254 
	C1482.138184,382.944519 1494.462158,394.911743 1503.850708,410.485443 
	C1513.260132,426.093964 1517.384277,443.499237 1520.808105,461.056549 
	C1522.278320,468.595764 1522.684326,476.403290 1522.925537,484.109192 
	C1523.491455,502.194153 1524.104248,520.296326 1523.897217,538.382385 
	C1523.588501,565.338562 1520.558105,591.965515 1509.899170,617.087524 
	C1497.641846,645.976746 1477.420776,665.348022 1445.453735,671.150879 
	C1427.376709,674.432373 1409.248047,673.865234 1391.086670,673.994446 
	C1385.943726,674.031006 1380.800415,674.000000 1375.330566,674.000000 
	C1375.330566,571.688049 1375.330566,469.664032 1375.330566,367.000000 
	C1377.397705,367.000000 1379.495972,367.000000 1382.085205,367.000000 
z"/>
<path fill="#000000" opacity="1.000000" stroke="none" 
	d="
M1173.262207,377.691956 
	C1188.502319,385.717194 1194.424561,399.454742 1196.847168,414.896942 
	C1198.893921,427.942780 1198.727905,441.078094 1196.167725,454.243561 
	C1192.960083,470.738098 1183.607178,482.165497 1169.223267,489.929626 
	C1158.727783,495.594971 1147.446777,498.792572 1135.511230,498.947937 
	C1118.596313,499.168152 1101.676270,499.003784 1084.376465,499.003784 
	C1084.376465,455.754517 1084.376465,411.703674 1084.376465,367.000000 
	C1086.218384,367.000000 1088.148682,367.000000 1090.079102,367.000000 
	C1102.410889,367.000000 1114.742920,366.949890 1127.074341,367.012451 
	C1143.135986,367.093933 1158.641235,369.702209 1173.262207,377.691956 
z"/>
<path fill="#000000" opacity="1.000000" stroke="none" 
	d="
M1453.190308,815.894531 
	C1449.106079,815.971375 1445.444702,815.971375 1441.391968,815.971375 
	C1441.391968,805.810730 1441.391968,795.755554 1441.391968,785.665039 
	C1450.321167,783.587830 1457.647827,785.408264 1459.694214,790.277893 
	C1463.744141,799.914246 1460.999756,811.440186 1453.190308,815.894531 
z"/>
<path fill="#000000" opacity="1.000000" stroke="none" 
	d="
M1519.343628,799.869873 
	C1520.079346,803.691528 1521.007935,807.249634 1520.835571,810.753723 
	C1520.651611,814.493408 1517.466431,816.669312 1514.155518,816.680969 
	C1511.547974,816.690125 1508.167847,815.788452 1507.892944,811.795410 
	C1507.692749,808.885803 1506.661133,805.840149 1507.254761,803.129944 
	C1507.735718,800.934387 1509.784302,797.980835 1511.685913,797.490723 
	C1513.819824,796.940735 1516.569946,798.781799 1519.343628,799.869873 
z"/>
<path fill="#000000" opacity="1.000000" stroke="none" 
	d="
M1070.000244,793.872070 
	C1070.000000,790.772034 1070.000000,788.146301 1070.000000,785.004578 
	C1073.492676,785.004578 1076.624512,784.763733 1079.703247,785.064209 
	C1083.747314,785.458984 1086.348022,787.308533 1086.066772,792.065613 
	C1085.805664,796.483215 1083.642822,798.184082 1079.467407,798.013550 
	C1077.475830,797.932190 1075.458496,797.820740 1073.488159,798.040710 
	C1070.516724,798.372437 1069.597534,797.055237 1070.000244,793.872070 
z"/>
<path fill="#000000" opacity="1.000000" stroke="none" 
	d="
M1197.984497,809.993652 
	C1199.742432,809.639099 1201.084106,809.290466 1202.470581,808.930115 
	C1203.312256,814.756531 1201.660156,817.779419 1196.740601,818.455872 
	C1195.326660,818.650330 1192.578369,816.910522 1192.221558,815.580139 
	C1191.114990,811.454956 1194.082642,810.264709 1197.984497,809.993652 
z"/>
<path fill="#000000" opacity="1.000000" stroke="none" 
	d="
M1392.993530,810.958740 
	C1390.778931,813.658875 1388.812012,816.329163 1386.221191,818.071899 
	C1385.329956,818.671448 1382.085938,817.405823 1381.382935,816.162842 
	C1380.762207,815.065430 1381.687256,811.814270 1382.796631,811.264893 
	C1385.763794,809.795776 1389.196655,809.267212 1392.444336,808.364929 
	C1392.628418,809.098389 1392.812500,809.831787 1392.993530,810.958740 
z"/>
<path fill="#000000" opacity="1.000000" stroke="none" 
	d="
M1594.399414,818.253601 
	C1592.381226,817.459900 1590.701050,816.483948 1589.020874,815.507935 
	C1590.232300,813.725952 1591.066650,811.227234 1592.749634,810.341675 
	C1594.896729,809.211731 1597.729736,809.385132 1600.255249,808.998657 
	C1601.530762,814.342834 1600.243896,816.414368 1594.399414,818.253601 
z"/>
<path fill="#000000" opacity="1.000000" stroke="none" 
	d="
M1794.977417,816.983276 
	C1793.858887,817.383850 1793.113037,817.673340 1792.391724,818.014526 
	C1789.620972,819.324829 1786.777222,818.862000 1786.321777,815.906433 
	C1786.058960,814.200623 1788.062012,811.349670 1789.811035,810.336914 
	C1791.873291,809.142883 1794.763306,809.378540 1798.930664,808.746033 
	C1797.470337,812.080627 1796.415894,814.488281 1794.977417,816.983276 
z"/>
<path fill="#000000" opacity="1.000000" stroke="none" 
	d="
M1139.275635,817.303345 
	C1137.902832,817.902161 1136.706055,818.772034 1135.810425,818.529602 
	C1134.137329,818.076782 1132.639038,816.978210 1131.067993,816.148315 
	C1132.215942,814.168274 1132.908081,811.383911 1134.626343,810.410278 
	C1136.812622,809.171509 1139.829834,809.399292 1142.488770,808.994751 
	C1142.930420,809.364685 1143.372070,809.734619 1143.813721,810.104553 
	C1142.405029,812.427185 1140.996338,814.749756 1139.275635,817.303345 
z"/>
<path fill="#000000" opacity="1.000000" stroke="none" 
	d="
M1267.838623,800.584656 
	C1268.290527,804.361389 1269.296265,807.897034 1268.687866,811.128845 
	C1268.104492,814.226929 1266.090332,817.034241 1261.884644,817.076477 
	C1257.768066,817.117859 1254.626709,816.215149 1253.922974,811.664734 
	C1253.476807,808.779541 1252.374268,805.452515 1253.342896,803.035767 
	C1254.435669,800.309204 1257.220459,797.117126 1259.833008,796.495361 
	C1262.031616,795.972107 1265.037842,798.842590 1267.838623,800.584656 
z"/>
<path fill="#000000" opacity="1.000000" stroke="none" 
	d="
M1722.809570,801.565308 
	C1723.112061,806.184265 1724.509033,810.500488 1721.311523,814.400146 
	C1717.955322,818.493103 1711.072266,817.980591 1708.732666,813.303711 
	C1706.466919,808.774719 1706.069214,804.133850 1708.823364,799.813477 
	C1712.189331,794.533081 1719.042969,795.327942 1722.809570,801.565308 
z"/>
</svg>