<svg xmlns="http://www.w3.org/2000/svg" width="1366" height="768" version="1.0" viewBox="0 0 1024.5 576"><defs><clipPath id="b"><path d="M582.219 514.54h3.746v3.75h-3.746Zm0 0"/></clipPath><clipPath id="c"><path d="M584.094 514.54a1.875 1.875 0 1 1-1.328 3.198 1.87 1.87 0 0 1-.547-1.324 1.87 1.87 0 0 1 1.875-1.875m0 0"/></clipPath><clipPath id="d"><path d="M230.352 18.09h573.285v500.004H230.352Zm0 0"/></clipPath><clipPath id="g"><path d="M.352 200H56v101H.352Zm0 0"/></clipPath><clipPath id="h"><path d="M.352 393h573.285v107.094H.352Zm0 0"/></clipPath><clipPath id="i"><path d="M518 200h55.637v101H518Zm0 0"/></clipPath><clipPath id="j"><path d="M.352.09h573.285V101H.352Zm0 0"/></clipPath><clipPath id="f"><path d="M0 0h574v501H0z"/></clipPath><clipPath id="m"><path d="M1 .434h308v58.05H1Zm0 0"/></clipPath><clipPath id="l"><path d="M0 0h310v59H0z"/></clipPath><clipPath id="p"><path d="M.223 1H433v302H.223Zm0 0"/></clipPath><clipPath id="o"><path d="M0 0h434v304H0z"/></clipPath><clipPath id="s"><path d="M1 .29h432.676V302H1Zm0 0"/></clipPath><clipPath id="r"><path d="M0 0h434v303H0z"/></clipPath><clipPath id="v"><path d="M1 .29h432.676v50.612H1Zm0 0"/></clipPath><clipPath id="u"><path d="M0 0h434v51H0z"/></clipPath><clipPath id="y"><path d="M1 .129h63.84v70.043H1Zm0 0"/></clipPath><clipPath id="x"><path d="M0 0h65v71H0z"/></clipPath><clipPath id="B"><path d="M1 1h63.84v70H1Zm0 0"/></clipPath><clipPath id="A"><path d="M0 0h65v72H0z"/></clipPath><clipPath id="E"><path d="M.355 1h168.157v167.945H.355Zm0 0"/></clipPath><clipPath id="D"><path d="M0 0h169v169H0z"/></clipPath><clipPath id="H"><path d="M1 .68h222.621V223H1Zm0 0"/></clipPath><clipPath id="G"><path d="M0 0h224v224H0z"/></clipPath><clipPath id="K"><path d="M.223.105H124.96V125H.223Zm0 0"/></clipPath><clipPath id="J"><path d="M0 0h125v126H0z"/></clipPath><clipPath id="M"><path d="M0 0h49v71H0z"/></clipPath><clipPath id="P"><path d="M92 367h12v11.992H92Zm0 0"/></clipPath><clipPath id="O"><path d="M0 0h416v379H0z"/></clipPath><mask id="e"><g filter="url(#a)"><path fill-opacity=".25" d="M-102.45-57.6h1229.4v691.2h-1229.4z"/></g></mask><mask id="k"><g filter="url(#a)"><path fill-opacity=".75" d="M-102.45-57.6h1229.4v691.2h-1229.4z"/></g></mask><mask id="n"><g filter="url(#a)"><path fill-opacity=".5" d="M-102.45-57.6h1229.4v691.2h-1229.4z"/></g></mask><mask id="q"><g filter="url(#a)"><path fill-opacity=".25" d="M-102.45-57.6h1229.4v691.2h-1229.4z"/></g></mask><mask id="t"><g filter="url(#a)"><path fill-opacity=".75" d="M-102.45-57.6h1229.4v691.2h-1229.4z"/></g></mask><mask id="w"><g filter="url(#a)"><path fill-opacity=".5" d="M-102.45-57.6h1229.4v691.2h-1229.4z"/></g></mask><mask id="z"><g filter="url(#a)"><path fill-opacity=".5" d="M-102.45-57.6h1229.4v691.2h-1229.4z"/></g></mask><mask id="C"><g filter="url(#a)"><path fill-opacity=".25" d="M-102.45-57.6h1229.4v691.2h-1229.4z"/></g></mask><mask id="F"><g filter="url(#a)"><path fill-opacity=".75" d="M-102.45-57.6h1229.4v691.2h-1229.4z"/></g></mask><mask id="I"><g filter="url(#a)"><path fill-opacity=".25" d="M-102.45-57.6h1229.4v691.2h-1229.4z"/></g></mask><mask id="L"><g filter="url(#a)"><path fill-opacity=".75" d="M-102.45-57.6h1229.4v691.2h-1229.4z"/></g></mask><mask id="N"><g filter="url(#a)"><path fill-opacity=".5" d="M-102.45-57.6h1229.4v691.2h-1229.4z"/></g></mask><filter id="a" width="100%" height="100%" x="0%" y="0%"><feColorMatrix color-interpolation-filters="sRGB" values="0 0 0 0 1 0 0 0 0 1 0 0 0 0 1 0 0 0 1 0"/></filter></defs><g clip-path="url(#b)"><g clip-path="url(#c)"><path fill="#595252" d="M582.219 514.54h3.746v3.75h-3.746Zm0 0"/></g></g><g clip-path="url(#d)" mask="url(#e)"><g clip-path="url(#f)" transform="translate(230 18)"><g clip-path="url(#g)"><path fill="#595252" d="M14.996 285.535C5.95 276.496.352 263.985.352 250.18c0-27.61 22.386-49.985 49.996-49.985h5.218v99.98h-5.218c-13.805 0-26.301-5.593-35.352-14.64m0 0"/></g><g clip-path="url(#h)"><path fill="#595252" d="M558.992 414.805c9.047 9.047 14.645 21.543 14.645 35.347 0 27.61-22.387 49.996-49.996 49.996H50.348c-13.805 0-26.301-5.593-35.352-14.64C5.95 476.457.352 463.957.352 450.152c0-27.609 22.386-49.996 49.996-49.996H72v6.434c0 9.762 5.723 17.68 12.781 17.68h282.2c6.64 0 12.113-7.024 12.718-15.997.29-.062.574-.136.867-.199.348-.082.692-.16 1.043-.246.454-.11.899-.223 1.352-.34.305-.078.61-.152.914-.234.492-.133.984-.27 1.484-.406.258-.075.516-.145.766-.22.547-.151 1.078-.315 1.617-.48.211-.062.426-.125.633-.191.582-.18 1.168-.363 1.746-.559.168-.054.328-.105.492-.16q.938-.312 1.875-.648.182-.063.352-.121c.672-.242 1.34-.489 2.012-.746.07-.024.136-.047.207-.075.71-.273 1.425-.554 2.136-.843.024-.012.047-.016.07-.028a109.7 109.7 0 0 0 17.508-9.023l51.04 51.039c3.667 3.676 9.632 3.676 13.304-.004l14.688-14.687a9.41 9.41 0 0 0 0-13.309l-16.637-16.637h46.473c13.804 0 26.3 5.598 35.351 14.649m0 0"/></g><g clip-path="url(#i)"><path fill="#595252" d="M558.992 214.836c9.047 9.047 14.645 21.539 14.645 35.344 0 27.62-22.387 49.996-49.996 49.996h-5.22v-99.98h5.22c13.804 0 26.3 5.597 35.351 14.64m0 0"/></g><g clip-path="url(#j)"><path fill="#595252" d="M14.996 85.563C5.95 76.52.352 64.023.352 50.219.352 22.609 22.738.223 50.348.223H523.64c13.804 0 26.3 5.597 35.351 14.64 9.047 9.055 14.645 21.551 14.645 35.356 0 27.61-22.387 49.984-49.996 49.984h-7.746c-3.13-5.246-8.864-8.754-15.41-8.754h-12.837v-7.972c0-9.907-8.03-17.938-17.933-17.938H315.613c-10.648-7.98-23.86-12.719-38.164-12.719s-27.289 4.532-38.203 12.72H73.504c-9.906 0-17.938 8.03-17.938 17.937v16.726h-5.218c-13.805 0-26.301-5.594-35.352-14.64m0 0"/></g><path fill="#595252" d="M55.566 114.438v70.851h-.16c-19.566 0-35.426-15.86-35.426-35.426s15.86-35.425 35.426-35.425ZM524.207 149.863a35.2 35.2 0 0 1-5.785 19.399v-38.793a35.2 35.2 0 0 1 5.785 19.394m0 0"/></g></g><g mask="url(#k)"><g clip-path="url(#l)" transform="translate(301 384)"><g clip-path="url(#m)"><path fill="#595252" d="M308.7 42.273c-.606 8.973-6.071 15.997-12.716 15.997H13.781C6.723 58.27 1 50.352 1 40.59V.78c.496.04 1 .063 1.504.063h12.828v7.972c0 9.907 8.035 17.938 17.941 17.938h190.098c25.531 16.809 56.465 21.98 85.324 15.52Zm0 0"/></g></g></g><path fill="#595252" d="M596.984 443.988H314.785c-7.996 0-14.496-8.703-14.496-19.398v-41.68l1.856.149c.468.043.93.058 1.363.058h14.55v9.695c0 8.942 7.278 16.22 16.22 16.22h190.617l.43.28c24.546 16.165 55.167 21.731 84.003 15.278l2.246-.504-.156 2.297c-.68 10.031-6.883 17.601-14.43 17.601Zm-293.257-57.425v38.027c0 8.8 4.96 15.96 11.058 15.96h282.2c5.074 0 9.503-5.155 10.718-12.093-28.867 5.809-59.258.035-83.84-15.98H334.277c-10.84 0-19.656-8.817-19.656-19.66v-6.255Zm0 0"/><g mask="url(#n)"><g clip-path="url(#o)" transform="translate(285 82)"><g clip-path="url(#p)"><path fill="#595252" d="M432.648 19.477v7.972H49.273c-9.906 0-17.941 8.031-17.941 17.938v257.457H18.504c-.504 0-1.008-.024-1.504-.063C7.8 302.02.566 294.31.566 284.906V19.476C.566 9.57 8.598 1.54 18.504 1.54H414.71c9.906 0 17.937 8.031 17.937 17.938m0 0"/></g></g></g><path fill="#595252" d="M318.055 386.563h-14.551c-.527 0-1.082-.024-1.645-.067-10.101-.84-18.02-9.445-18.02-19.59v-265.43c0-10.843 8.817-19.66 19.657-19.66h396.211c10.84 0 19.656 8.817 19.656 19.66v9.692H334.277c-8.941 0-16.218 7.277-16.218 16.219v259.176ZM303.504 85.258c-8.945 0-16.219 7.273-16.219 16.219v265.43c0 8.366 6.524 15.472 14.86 16.16.464.038.921.058 1.359.058h11.11V127.387c0-10.84 8.816-19.657 19.66-19.657H715.93v-6.253c0-8.946-7.278-16.22-16.22-16.22Zm0 0"/><g mask="url(#q)"><g clip-path="url(#r)" transform="translate(315 109)"><g clip-path="url(#s)"><path fill="#595252" d="M433.422 18.387v265.43c0 9.906-8.031 17.937-17.938 17.937H331.31a112.164 112.164 0 0 0 17.55-14.312c3.66-3.665 7.02-7.516 10.059-11.54a102 102 0 0 0 2.695-3.707c.063-.086.125-.18.188-.273 26.101-37.8 26.11-88.188 0-125.996a111.7 111.7 0 0 0-12.942-15.524c-43.363-43.359-113.671-43.359-157.035.004-43.363 43.371-43.363 113.672 0 157.035a111 111 0 0 0 17.555 14.313H19.273c-9.906 0-17.941-8.031-17.941-17.938V18.386C1.332 8.48 9.367.45 19.273.45H415.48c9.907 0 17.938 8.031 17.938 17.938Zm0 0"/></g></g></g><path fill="#595252" d="M730.48 412.477h-89.91l4.79-3.153a110.096 110.096 0 0 0 17.277-14.094 109 109 0 0 0 9.906-11.363c.91-1.191 1.8-2.418 2.652-3.644.059-.082.09-.121.117-.16l.075-.11c25.613-37.098 25.613-86.95 0-124.043a111 111 0 0 0-12.746-15.281c-42.621-42.617-111.977-42.617-154.602.004-42.617 42.625-42.617 111.98 0 154.605a109.8 109.8 0 0 0 17.285 14.09l4.805 3.16H334.277c-10.84 0-19.656-8.82-19.656-19.66V127.387c0-10.84 8.817-19.657 19.656-19.657h396.207c10.84 0 19.657 8.817 19.657 19.657v265.43c0 10.843-8.817 19.66-19.657 19.66Zm-78.683-3.442h78.683c8.942 0 16.215-7.273 16.215-16.219v-265.43c0-8.94-7.273-16.218-16.215-16.218H334.277c-8.941 0-16.218 7.277-16.218 16.219v265.43c0 8.945 7.277 16.218 16.218 16.218H518.88a113.6 113.6 0 0 1-13.277-11.379c-43.957-43.96-43.957-115.5 0-159.465 43.964-43.964 115.5-43.964 159.464-.004a113.7 113.7 0 0 1 13.145 15.766c13.008 18.836 19.883 40.961 19.883 63.977 0 23.011-6.875 45.132-19.883 63.972l-.05.075-.165.242a99 99 0 0 1-2.71 3.726c-3.071 4.059-6.505 8-10.212 11.711a113.4 113.4 0 0 1-13.273 11.38Zm0 0"/><g mask="url(#t)"><g clip-path="url(#u)" transform="translate(315 109)"><g clip-path="url(#v)"><path fill="#595252" d="M415.484.45H19.274C9.366.45 1.331 8.48 1.331 18.386v32.289h432.086v-32.29C433.418 8.48 425.387.45 415.48.45ZM29.54 33.89a6.34 6.34 0 0 1-6.34-6.343 6.34 6.34 0 0 1 6.34-6.34 6.346 6.346 0 0 1 6.348 6.34 6.347 6.347 0 0 1-6.348 6.344m27.906 0a6.342 6.342 0 0 1 0-12.683 6.346 6.346 0 0 1 6.348 6.34 6.347 6.347 0 0 1-6.348 6.344m27.91 0a6.342 6.342 0 1 1 0-12.684c3.5.001 6.344 2.84 6.344 6.34a6.346 6.346 0 0 1-6.344 6.345m0 0"/></g></g></g><path fill="#595252" d="M748.418 157.957H316.332v3.438h432.086Zm0 0"/><g mask="url(#w)"><g clip-path="url(#x)" transform="translate(348 190)"><g clip-path="url(#y)"><path fill="#595252" d="M1.223 5.234V65.59a4.51 4.51 0 0 0 4.511 4.512h53.918a4.51 4.51 0 0 0 4.512-4.512V19.805a4.51 4.51 0 0 0-1.61-3.453L45.224 1.785A4.5 4.5 0 0 0 42.32.723H5.734a4.51 4.51 0 0 0-4.511 4.511m0 0"/></g></g></g><g mask="url(#z)"><g clip-path="url(#A)" transform="translate(348 285)"><g clip-path="url(#B)"><path fill="#595252" d="M1.223 5.945v60.356a4.51 4.51 0 0 0 4.511 4.511h53.918a4.51 4.51 0 0 0 4.512-4.511V20.51c0-1.327-.59-2.597-1.61-3.448L45.224 2.492a4.53 4.53 0 0 0-2.903-1.06H5.734a4.51 4.51 0 0 0-4.511 4.512m0 0"/></g></g></g><g mask="url(#C)"><g clip-path="url(#D)" transform="translate(501 233)"><g clip-path="url(#E)"><path fill="#595252" d="M155.883 128.469a84 84 0 0 1-12.34 15.664 84.1 84.1 0 0 1-15.66 12.336c-32.238 19.648-74.88 15.535-102.75-12.344-32.695-32.687-32.695-85.703 0-118.402 32.699-32.703 85.715-32.703 118.41 0 27.879 27.879 31.984 70.52 12.34 102.754Zm0 0"/></g></g></g><path fill="#595252" d="M585.25 403.367a85 85 0 0 1-9.574-.539c-19.39-2.195-36.942-10.664-50.766-24.484-33.312-33.317-33.312-87.52 0-120.84 16.14-16.137 37.598-25.027 60.426-25.027s44.285 8.886 60.422 25.023c13.824 13.82 22.289 31.375 24.484 50.766 2.13 18.812-2.097 38.023-11.894 54.097a86 86 0 0 1-12.59 15.985 85.8 85.8 0 0 1-15.98 12.59c-13.352 8.14-28.872 12.43-44.528 12.43m.086-167.453c-21.906 0-42.504 8.531-57.992 24.024-31.973 31.976-31.973 84.003 0 115.972 26.855 26.867 68.242 31.836 100.636 12.094a82.2 82.2 0 0 0 15.344-12.086 82.7 82.7 0 0 0 12.082-15.344c19.75-32.394 14.782-73.781-12.082-100.644-15.492-15.489-36.082-24.016-57.988-24.016m0 0"/><g mask="url(#F)"><g clip-path="url(#G)" transform="translate(473 206)"><g clip-path="url(#H)"><path fill="#595252" d="M203.797 48.926a112 112 0 0 0-12.945-15.524C147.488-9.957 77.18-9.957 33.82 33.406c-43.363 43.371-43.363 113.672 0 157.035a111.4 111.4 0 0 0 17.551 14.317c25.531 16.808 56.465 21.976 85.324 15.515a110.2 110.2 0 0 0 36.61-15.515 111.896 111.896 0 0 0 17.547-14.316 111 111 0 0 0 10.062-11.54 98 98 0 0 0 2.695-3.703c.063-.086.125-.183.188-.277 26.101-37.8 26.105-88.188 0-125.996m-19.922 106.547a84.2 84.2 0 0 1-12.332 15.656 84 84 0 0 1-15.66 12.336c-32.238 19.652-74.88 15.543-102.758-12.336-32.691-32.703-32.691-85.715 0-118.406 32.703-32.707 85.723-32.707 118.418-.012 27.875 27.879 31.984 70.523 12.332 102.762m0 0"/></g></g></g><path fill="#595252" d="M585.402 430.75c-29.062 0-57.941-11.234-79.793-33.094-43.96-43.96-43.96-115.492 0-159.465 21.297-21.296 49.61-33.027 79.73-33.027 30.122 0 58.438 11.73 79.735 33.027a113.7 113.7 0 0 1 13.145 15.762c13.008 18.836 19.883 40.961 19.883 63.977 0 23.011-6.875 45.129-19.88 63.968-.066.102-.14.204-.21.309a112.7 112.7 0 0 1-12.938 15.453 114 114 0 0 1-15.48 12.953c-19.45 13.516-41.88 20.137-64.192 20.137m-.062-222.145c-29.203 0-56.653 11.375-77.3 32.016-42.618 42.625-42.618 111.98 0 154.598 37.456 37.46 96.167 42.746 139.593 12.562 5.34-3.71 10.39-7.933 15.008-12.554a109.4 109.4 0 0 0 12.734-15.27l.012-.016c25.613-37.097 25.613-86.949 0-124.046a109.5 109.5 0 0 0-12.746-15.278c-20.649-20.648-48.098-32.02-77.301-32.02Zm0 0"/><path fill="#595252" d="m723.805 448.098-14.688 14.687a9.39 9.39 0 0 1-13.304 0l-51.04-51.039a111.912 111.912 0 0 0 19.086-15.312c3.66-3.66 7.02-7.52 10.059-11.54l49.894 49.895c3.676 3.672 3.676 9.629 0 13.297ZM593.969 350.137c-2.535-2.254-5.692-3.371-9.489-3.371-3.793 0-6.937 1.125-9.468 3.37-2.535 2.259-3.813 5.126-3.813 8.641 0 3.512 1.278 6.38 3.813 8.621 2.531 2.254 5.691 3.372 9.468 3.372s6.954-1.125 9.489-3.372c2.535-2.242 3.797-5.12 3.797-8.62 0-3.505-1.262-6.383-3.797-8.641M610.09 272.387c-5.79-4.883-13.985-7.32-24.535-7.32-10.555 0-18.856 2.648-24.723 7.917-5.879 5.274-8.867 12.653-8.95 22.137h24.005c.093-3.555 1.015-6.363 2.777-8.453 1.742-2.086 4.047-3.129 6.89-3.129 6.157 0 9.227 3.582 9.227 10.738q.001 4.402-2.734 8.047c-1.828 2.453-4.488 5.137-7.988 8.067-3.512 2.937-6.032 6.406-7.606 10.41-1.558 3.996-2.332 9.453-2.332 16.367h20.317c.082-3.598.582-6.563 1.484-8.914.902-2.344 2.512-4.625 4.828-6.856l8.176-7.601c3.449-3.36 5.972-6.656 7.539-9.879 1.555-3.215 2.332-6.785 2.332-10.719 0-8.988-2.899-15.937-8.707-20.816Zm0 0"/><path fill="#fff" d="M569.473 134.559c0 24.527-14.23 45.718-34.883 55.78-8.195 4.009-17.406 6.243-27.14 6.243-34.25 0-62.02-27.762-62.02-62.023 0-15.098 5.394-28.946 14.375-39.7 11.367-13.636 28.492-22.316 47.636-22.316 34.262 0 62.024 27.762 62.024 62.016Zm0 0"/><path fill="#fff" d="M507.45 196.871c-34.352 0-62.305-27.953-62.305-62.312 0-14.559 5.132-28.727 14.44-39.883 11.872-14.246 29.317-22.422 47.864-22.422 34.356 0 62.309 27.95 62.309 62.305 0 11.906-3.371 23.484-9.738 33.468a62.45 62.45 0 0 1-25.305 22.57c-8.516 4.165-17.688 6.274-27.266 6.274m0-124.043c-18.376 0-35.66 8.094-47.423 22.215a61.8 61.8 0 0 0-14.308 39.516c0 34.043 27.687 61.738 61.73 61.738 9.492 0 18.578-2.094 27.012-6.215 21.418-10.434 34.726-31.707 34.726-55.523 0-34.036-27.695-61.73-61.738-61.73m0 0"/><g mask="url(#I)"><g clip-path="url(#J)" transform="translate(445 72)"><g clip-path="url(#K)"><path fill="#595252" d="M124.473 62.559c0 24.527-14.23 45.718-34.883 55.78-8.195 4.009-17.406 6.243-27.14 6.243C28.2 124.582.43 96.82.43 62.559c0-15.098 5.394-28.946 14.375-39.7C26.172 9.223 43.297.543 62.44.543c34.262 0 62.024 27.762 62.024 62.016Zm0 0"/></g></g></g><path fill="#595252" d="M507.45 198.305c-35.141 0-63.74-28.598-63.74-63.746 0-14.899 5.247-29.387 14.774-40.801 12.145-14.57 29.989-22.938 48.965-22.938 35.149 0 63.742 28.59 63.742 63.739 0 12.183-3.445 24.02-9.968 34.242a63.84 63.84 0 0 1-25.883 23.086c-8.707 4.261-18.094 6.418-27.89 6.418m0-124.043c-17.95 0-34.833 7.91-46.321 21.699-9.012 10.793-13.977 24.5-13.977 38.598 0 33.25 27.047 60.304 60.297 60.304 9.27 0 18.149-2.043 26.383-6.066 20.926-10.188 33.922-30.969 33.922-54.238 0-33.243-27.055-60.297-60.305-60.297m0 0"/><g mask="url(#L)"><g clip-path="url(#M)" transform="translate(483 99)"><path fill="#595252" d="M47.8 41.676c0 9.035-2.03 16.008-6.09 20.91q-6.088 7.347-17.163 7.348c-7.383 0-13.203-2.465-17.277-7.395-4.079-4.93-6.114-11.883-6.114-20.863V29.453Q1.158 15.9 7.246 8.547c4.059-4.902 9.79-7.348 17.207-7.348s13.16 2.465 17.235 7.395C45.766 13.524 47.8 20.496 47.8 29.5Zm-15.484-14.2c0-4.808-.632-8.398-1.886-10.777-1.258-2.375-3.246-3.558-5.977-3.558-2.726 0-4.601 1.097-5.812 3.304-1.207 2.207-1.864 5.547-1.953 10.016v17.098c0 4.992.625 8.644 1.886 10.96 1.254 2.31 3.242 3.47 5.973 3.47 2.726 0 4.582-1.126 5.836-3.38q1.88-3.383 1.933-10.586Zm0 0"/></g></g><g mask="url(#N)"><g clip-path="url(#O)" transform="translate(326 87)"><path fill="#595252" d="M124.04 303.04a6.333 6.333 0 0 0 6.331-6.333 6.33 6.33 0 0 0-6.332-6.328 6.33 6.33 0 0 0-6.328 6.328 6.33 6.33 0 0 0 6.328 6.332m0 0"/><g clip-path="url(#P)"><path fill="#595252" d="M98.117 378.55a5.4 5.4 0 1 0-.004-10.8 5.4 5.4 0 0 0 .004 10.8m0 0"/></g><path fill="#595252" d="M305.168 374.773a7.534 7.534 0 1 0 0-15.066 7.53 7.53 0 0 0-7.531 7.531 7.534 7.534 0 0 0 7.531 7.535M408.184 11.117a4.72 4.72 0 1 0-.002-9.439 4.72 4.72 0 0 0 .002 9.44M375.71 162.238c6.583 0 11.915-5.332 11.915-11.91 0-6.582-5.332-11.914-11.914-11.914-6.578 0-11.914 5.332-11.914 11.914 0 6.578 5.336 11.91 11.914 11.91M7.219 374.773a7.006 7.006 0 1 0-.004-14.012 7.006 7.006 0 0 0 .004 14.012M411.488 344.84a3.307 3.307 0 1 0 .004-6.614 3.307 3.307 0 0 0-.004 6.614m0 0"/></g></g></svg>